<svg xmlns="http://www.w3.org/2000/svg" xmlns:xlink="http://www.w3.org/1999/xlink" version="1.1" width="1000" height="1000" viewBox="0 0 1000 1000" xml:space="preserve">
<desc>Created with Fabric.js 3.5.0</desc>
<defs>
</defs>
<rect x="0" y="0" width="100%" height="100%" fill="#ffffff"/>
<g transform="matrix(5.7905 0 0 4.5305 531.6202 371.6505)" id="186327">
<g style="" vector-effect="non-scaling-stroke">
		<g transform="matrix(1 0 0 1 20.0323 -50.7917)">
<linearGradient id="SVGID_12" gradientUnits="userSpaceOnUse" gradientTransform="matrix(1 0 0 1 0 0)" x1="79.0417" y1="21.2523" x2="81.9783" y2="21.2523">
<stop offset="0%" style="stop-color:rgb(255,102,169);stop-opacity: 1"/>
<stop offset="100%" style="stop-color:rgb(245,54,137);stop-opacity: 1"/>
</linearGradient>
<path style="stroke: none; stroke-width: 1; stroke-dasharray: none; stroke-linecap: butt; stroke-dashoffset: 0; stroke-linejoin: miter; stroke-miterlimit: 4; is-custom-font: none; font-file-url: none; fill: url(#SVGID_12); fill-rule: nonzero; opacity: 1;" transform=" translate(-80.5323, -21.2083)" d="M 80.5322 22.6286 C 81.3197 22.6286 81.9581 21.9927 81.9581 21.2083 C 81.9581 20.424 81.3197 19.7881 80.5322 19.7881 C 79.7448 19.7881 79.1064 20.424 79.1064 21.2083 C 79.1064 21.9927 79.7448 22.6286 80.5322 22.6286 Z" stroke-linecap="round"/>
</g>
		<g transform="matrix(1 0 0 1 38.7187 -42.8087)">
<linearGradient id="SVGID_13" gradientUnits="userSpaceOnUse" gradientTransform="matrix(1 0 0 1 0 0)" x1="97.3895" y1="29.2775" x2="100.935" y2="29.2775">
<stop offset="0%" style="stop-color:rgb(131,166,255);stop-opacity: 1"/>
<stop offset="100%" style="stop-color:rgb(90,120,255);stop-opacity: 1"/>
</linearGradient>
<path style="stroke: none; stroke-width: 1; stroke-dasharray: none; stroke-linecap: butt; stroke-dashoffset: 0; stroke-linejoin: miter; stroke-miterlimit: 4; is-custom-font: none; font-file-url: none; fill: url(#SVGID_13); fill-rule: nonzero; opacity: 1;" transform=" translate(-99.2187, -29.1913)" d="M 99.2189 31.0485 C 100.206 31.0485 101.083 30.2837 101.083 29.1912 C 101.083 28.208 100.316 27.334 99.2189 27.334 C 98.2318 27.334 97.3544 28.0987 97.3544 29.1912 C 97.3544 30.2837 98.2318 31.0485 99.2189 31.0485 Z" stroke-linecap="round"/>
</g>
		<g transform="matrix(1 0 0 1 -48.6707 49.6725)">
<linearGradient id="SVGID_14" gradientUnits="userSpaceOnUse" gradientTransform="matrix(1 0 0 1 0 0)" x1="9.95771" y1="121.706" x2="13.5031" y2="121.706">
<stop offset="0%" style="stop-color:rgb(131,166,255);stop-opacity: 1"/>
<stop offset="100%" style="stop-color:rgb(90,120,255);stop-opacity: 1"/>
</linearGradient>
<path style="stroke: none; stroke-width: 1; stroke-dasharray: none; stroke-linecap: butt; stroke-dashoffset: 0; stroke-linejoin: miter; stroke-miterlimit: 4; is-custom-font: none; font-file-url: none; fill: url(#SVGID_14); fill-rule: nonzero; opacity: 1;" transform=" translate(-11.8294, -121.6725)" d="M 11.8294 123.53 C 12.8165 123.53 13.6939 122.765 13.6939 121.673 C 13.6939 120.689 12.9261 119.815 11.8294 119.815 C 10.8423 119.815 9.96484 120.58 9.96484 121.673 C 9.96484 122.656 10.7326 123.53 11.8294 123.53 Z" stroke-linecap="round"/>
</g>
		<g transform="matrix(1 0 0 1 -46.4366 -39.5808)">
<path style="stroke: none; stroke-width: 1; stroke-dasharray: none; stroke-linecap: butt; stroke-dashoffset: 0; stroke-linejoin: miter; stroke-miterlimit: 4; is-custom-font: none; font-file-url: none; fill: rgb(234,238,249); fill-rule: nonzero; opacity: 1;" transform=" translate(-14.0633, -32.4192)" d="M 14.6397 34.1855 C 15.619 33.8684 16.1548 32.8206 15.8365 31.8451 C 15.5182 30.8697 14.4663 30.3359 13.487 30.653 C 12.5077 30.97 11.9719 32.0178 12.2902 32.9933 C 12.6085 33.9688 13.6604 34.5025 14.6397 34.1855 Z" stroke-linecap="round"/>
</g>
		<g transform="matrix(1 0 0 1 -33.718 50.3347)">
<path style="stroke: none; stroke-width: 1; stroke-dasharray: none; stroke-linecap: butt; stroke-dashoffset: 0; stroke-linejoin: miter; stroke-miterlimit: 4; is-custom-font: none; font-file-url: none; fill: rgb(234,238,249); fill-rule: nonzero; opacity: 1;" transform=" translate(-26.782, -122.3347)" d="M 27.9658 123.625 C 28.6812 122.974 28.7312 121.868 28.0774 121.156 C 27.4236 120.443 26.3136 120.393 25.5982 121.044 C 24.8827 121.696 24.8328 122.801 25.4866 123.514 C 26.1404 124.227 27.2503 124.276 27.9658 123.625 Z" stroke-linecap="round"/>
</g>
		<g transform="matrix(1 0 0 1 -0.5 2.7498)">
<path style="stroke: none; stroke-width: 1; stroke-dasharray: none; stroke-linecap: butt; stroke-dashoffset: 0; stroke-linejoin: miter; stroke-miterlimit: 4; is-custom-font: none; font-file-url: none; fill: rgb(234,238,249); fill-rule: nonzero; opacity: 0.1;" transform=" translate(-60, -74.7498)" d="M 111 54.1563 V 95.3437 C 111 95.9992 111 96.5454 110.89 97.2009 C 110.342 101.899 107.6 106.05 103.432 108.454 L 67.6774 128.993 C 64.2774 130.959 60.2194 131.505 56.4903 130.522 C 55.0645 130.194 53.7484 129.648 52.5419 128.993 L 16.6774 108.344 C 13.9355 106.815 11.8516 104.521 10.5355 101.789 C 9.54839 99.8229 9 97.5287 9 95.2344 V 54.1563 C 9 51.9713 9.43871 49.8956 10.3161 47.9291 C 11.6323 45.0886 13.7161 42.6851 16.5677 41.0463 L 52.4323 20.5073 C 55.9419 18.5408 59.8903 17.9945 63.729 18.9778 C 65.0452 19.3055 66.3613 19.8518 67.6774 20.5073 L 103.432 41.0463 C 106.613 42.9036 108.916 45.7441 110.123 49.1308 C 110.671 50.6603 111 52.4083 111 54.1563 Z" stroke-linecap="round"/>
</g>
		<g transform="matrix(1 0 0 1 35.5031 5.0363)">
<path style="stroke: none; stroke-width: 1; stroke-dasharray: none; stroke-linecap: butt; stroke-dashoffset: 0; stroke-linejoin: miter; stroke-miterlimit: 4; is-custom-font: none; font-file-url: none; fill: rgb(234,238,249); fill-rule: nonzero; opacity: 1;" transform=" translate(-96.0031, -77.0363)" d="M 99.268 80.4717 C 101.189 78.6904 101.317 75.764 99.524 73.8554 C 97.7315 71.9469 94.7866 71.8197 92.7379 73.601 C 90.8173 75.3823 90.6893 78.3087 92.4819 80.2172 C 94.2744 82.1258 97.2193 82.253 99.268 80.4717 Z" stroke-linecap="round"/>
</g>
		<g transform="matrix(1 0 0 1 0.9866 37.1775)">
<path style="stroke: none; stroke-width: 1; stroke-dasharray: none; stroke-linecap: butt; stroke-dashoffset: 0; stroke-linejoin: miter; stroke-miterlimit: 4; is-custom-font: none; font-file-url: none; fill: rgb(233,54,139); fill-rule: nonzero; opacity: 1;" transform=" translate(-61.4866, -109.1775)" d="M 81.4938 87.355 L 81.4938 111.118 C 81.4938 122.101 72.5382 131 61.4866 131 C 60.9149 131 60.4386 131 59.8669 130.905 C 49.5775 130.053 41.4794 121.532 41.4794 111.118 L 41.4794 87.355 L 49.9586 87.355 L 49.9586 111.118 C 49.9586 116.893 54.2459 121.627 59.7717 122.385 C 60.3433 122.479 60.8197 122.479 61.3913 122.479 C 67.6793 122.479 72.824 117.367 72.824 111.118 L 72.824 87.355 L 81.4938 87.355 Z" stroke-linecap="round"/>
</g>
		<g transform="matrix(1 0 0 1 -2.2528 37.1775)">
<linearGradient id="SVGID_15" gradientUnits="userSpaceOnUse" gradientTransform="matrix(1 0 0 1 0 0)" x1="58.2466" y1="100.898" x2="58.2466" y2="128.617">
<stop offset="0%" style="stop-color:rgb(255,102,169);stop-opacity: 1"/>
<stop offset="100%" style="stop-color:rgb(245,54,137);stop-opacity: 1"/>
</linearGradient>
<path style="stroke: none; stroke-width: 1; stroke-dasharray: none; stroke-linecap: butt; stroke-dashoffset: 0; stroke-linejoin: miter; stroke-miterlimit: 4; is-custom-font: none; font-file-url: none; fill: url(#SVGID_15); fill-rule: nonzero; opacity: 1;" transform=" translate(-58.2472, -109.1775)" d="M 78.2544 87.355 L 78.2544 111.118 C 78.2544 121.532 70.1562 130.053 59.8668 130.905 C 59.2952 130.905 58.8188 131 58.2472 131 C 47.1956 131 38.24 122.101 38.24 111.118 L 38.24 87.355 L 46.7192 87.355 L 46.7192 111.118 C 46.7192 117.367 51.8639 122.479 58.1519 122.479 C 58.7236 122.479 59.1999 122.479 59.7715 122.385 C 65.2973 121.627 69.5846 116.799 69.5846 111.118 L 69.5846 87.355 L 78.2544 87.355 Z" stroke-linecap="round"/>
</g>
		<g transform="matrix(1 0 0 1 -19.6878 30.4085)">
<path style="stroke: none; stroke-width: 1; stroke-dasharray: none; stroke-linecap: butt; stroke-dashoffset: 0; stroke-linejoin: miter; stroke-miterlimit: 4; is-custom-font: none; font-file-url: none; fill: rgb(255,148,198); fill-rule: nonzero; opacity: 0.7;" transform=" translate(-40.8122, -102.4085)" d="M 40.8123 104.018 C 40.3359 104.018 39.9548 103.639 39.9548 103.166 L 39.9548 101.651 C 39.9548 101.178 40.3359 100.799 40.8123 100.799 C 41.2886 100.799 41.6697 101.178 41.6697 101.651 L 41.6697 103.166 C 41.6697 103.639 41.2886 104.018 40.8123 104.018 Z" stroke-linecap="round"/>
</g>
		<g transform="matrix(1 0 0 1 -16.871 43.284)">
<path style="stroke: none; stroke-width: 1; stroke-dasharray: none; stroke-linecap: butt; stroke-dashoffset: 0; stroke-linejoin: miter; stroke-miterlimit: 4; is-custom-font: none; font-file-url: none; fill: rgb(255,148,198); fill-rule: nonzero; opacity: 0.7;" transform=" translate(-43.629, -115.284)" d="M 46.5282 124.846 C 46.3377 124.846 46.1471 124.751 45.9566 124.657 C 42.0504 121.154 39.8591 116.231 39.8591 111.118 L 39.8591 106.574 C 39.8591 106.1 40.2402 105.722 40.7166 105.722 C 41.1929 105.722 41.574 106.1 41.574 106.574 L 41.574 111.118 C 41.574 115.757 43.5748 120.207 47.0998 123.331 C 47.4809 123.615 47.4809 124.183 47.1951 124.562 C 47.0046 124.751 46.814 124.846 46.5282 124.846 Z" stroke-linecap="round"/>
</g>
		<g transform="matrix(1 0 0 1 -2.4824 55.318)">
<path style="stroke: none; stroke-width: 1; stroke-dasharray: none; stroke-linecap: butt; stroke-dashoffset: 0; stroke-linejoin: miter; stroke-miterlimit: 4; is-custom-font: none; font-file-url: none; fill: rgb(255,148,198); fill-rule: nonzero; opacity: 0.7;" transform=" translate(-58.0176, -127.3179)" d="M 58.2471 129.296 C 55.1032 129.296 52.0544 128.538 49.2915 127.024 C 48.9104 126.834 48.7199 126.266 48.9104 125.793 C 49.101 125.414 49.6726 125.225 50.149 125.414 C 52.6261 126.74 55.389 127.497 58.2471 127.497 C 58.7235 127.497 59.1999 127.497 59.581 127.402 C 61.8675 127.213 63.9635 126.645 65.9642 125.509 C 66.3453 125.319 66.9169 125.414 67.1075 125.887 C 67.298 126.266 67.2027 126.834 66.7264 127.024 C 64.5351 128.16 62.1533 128.917 59.6762 129.106 C 59.2951 129.296 58.7235 129.296 58.2471 129.296 Z" stroke-linecap="round"/>
</g>
		<g transform="matrix(1 0 0 1 -16.4008 20.5621)">
<path style="stroke: none; stroke-width: 1; stroke-dasharray: none; stroke-linecap: butt; stroke-dashoffset: 0; stroke-linejoin: miter; stroke-miterlimit: 4; is-custom-font: none; font-file-url: none; fill: rgb(221,230,242); fill-rule: nonzero; opacity: 1;" transform=" translate(-44.0992, -92.5621)" d="M 49.9585 87.355 L 38.24 87.355 L 38.24 97.7692 L 49.9585 97.7692 L 49.9585 87.355 Z" stroke-linecap="round"/>
</g>
		<g transform="matrix(1 0 0 1 -16.4008 20.5621)">
<path style="stroke: none; stroke-width: 1; stroke-dasharray: none; stroke-linecap: butt; stroke-dashoffset: 0; stroke-linejoin: miter; stroke-miterlimit: 4; is-custom-font: none; font-file-url: none; fill: rgb(206,215,226); fill-rule: nonzero; opacity: 1;" transform=" translate(-44.0992, -92.5621)" d="M 49.9585 87.355 L 38.24 87.355 L 38.24 97.7692 L 49.9585 97.7692 L 49.9585 87.355 Z" stroke-linecap="round"/>
</g>
		<g transform="matrix(1 0 0 1 -18.0204 20.5621)">
<path style="stroke: none; stroke-width: 1; stroke-dasharray: none; stroke-linecap: butt; stroke-dashoffset: 0; stroke-linejoin: miter; stroke-miterlimit: 4; is-custom-font: none; font-file-url: none; fill: rgb(255,255,255); fill-rule: nonzero; opacity: 1;" transform=" translate(-42.4796, -92.5621)" d="M 46.7192 87.355 L 38.24 87.355 L 38.24 97.7692 L 46.7192 97.7692 L 46.7192 87.355 Z" stroke-linecap="round"/>
</g>
		<g transform="matrix(1 0 0 1 22.2856 20.5621)">
<path style="stroke: none; stroke-width: 1; stroke-dasharray: none; stroke-linecap: butt; stroke-dashoffset: 0; stroke-linejoin: miter; stroke-miterlimit: 4; is-custom-font: none; font-file-url: none; fill: rgb(232,236,247); fill-rule: nonzero; opacity: 1;" transform=" translate(-82.7856, -92.5621)" d="M 88.6448 87.355 L 76.9263 87.355 L 76.9263 97.7692 L 88.6448 97.7692 L 88.6448 87.355 Z" stroke-linecap="round"/>
</g>
		<g transform="matrix(1 0 0 1 15.0387 20.5621)">
<path style="stroke: none; stroke-width: 1; stroke-dasharray: none; stroke-linecap: butt; stroke-dashoffset: 0; stroke-linejoin: miter; stroke-miterlimit: 4; is-custom-font: none; font-file-url: none; fill: rgb(206,215,226); fill-rule: nonzero; opacity: 1;" transform=" translate(-75.5387, -92.5621)" d="M 81.3979 87.355 L 69.6794 87.355 L 69.6794 97.7692 L 81.3979 97.7692 L 81.3979 87.355 Z" stroke-linecap="round"/>
</g>
		<g transform="matrix(1 0 0 1 11.58 20.5621)">
<path style="stroke: none; stroke-width: 1; stroke-dasharray: none; stroke-linecap: butt; stroke-dashoffset: 0; stroke-linejoin: miter; stroke-miterlimit: 4; is-custom-font: none; font-file-url: none; fill: rgb(232,236,247); fill-rule: nonzero; opacity: 1;" transform=" translate(-72.0799, -92.5621)" d="M 76.3672 87.355 L 67.888 87.355 L 67.7927 97.7692 L 76.3672 97.7692 L 76.3672 87.355 Z" stroke-linecap="round"/>
</g>
		<g transform="matrix(1 0 0 1 13.4667 20.5621)">
<path style="stroke: none; stroke-width: 1; stroke-dasharray: none; stroke-linecap: butt; stroke-dashoffset: 0; stroke-linejoin: miter; stroke-miterlimit: 4; is-custom-font: none; font-file-url: none; fill: rgb(255,255,255); fill-rule: nonzero; opacity: 1;" transform=" translate(-73.9667, -92.5621)" d="M 78.254 87.355 L 69.7747 87.355 L 69.6794 97.7692 L 78.254 97.7692 L 78.254 87.355 Z" stroke-linecap="round"/>
</g>
		<g transform="matrix(1 0 0 1 19.5361 -22.3986)">
<path style="stroke: none; stroke-width: 1; stroke-dasharray: none; stroke-linecap: butt; stroke-dashoffset: 0; stroke-linejoin: miter; stroke-miterlimit: 4; is-custom-font: none; font-file-url: none; fill: rgb(215,220,235); fill-rule: nonzero; opacity: 1;" transform=" translate(-80.0361, -49.6013)" d="M 98.4675 49.5292 C 98.4675 54.8653 96.1454 59.6246 92.5172 62.9416 C 91.5013 63.8069 90.4854 64.6722 89.1792 65.3933 C 86.4218 66.9797 83.374 67.845 80.0361 67.845 C 76.6981 67.845 73.5052 66.9797 70.8929 65.3933 C 70.4575 65.1049 70.0221 64.9607 69.5867 64.6722 C 64.7975 61.3552 61.6046 55.8749 61.6046 49.6735 C 61.6046 39.5781 69.877 31.3577 80.0361 31.3577 C 90.1951 31.3577 98.4675 39.4339 98.4675 49.5292 Z" stroke-linecap="round"/>
</g>
		<g transform="matrix(1 0 0 1 20.7705 -19.9468)">
<path style="stroke: none; stroke-width: 1; stroke-dasharray: none; stroke-linecap: butt; stroke-dashoffset: 0; stroke-linejoin: miter; stroke-miterlimit: 4; is-custom-font: none; font-file-url: none; fill: rgb(255,255,255); fill-rule: nonzero; opacity: 1;" transform=" translate(-81.2705, -52.0532)" d="M 92.3729 62.3649 C 91.6472 60.9227 90.4862 59.4805 88.8898 58.6152 C 88.1641 58.1825 87.2933 58.0383 86.2774 57.8941 L 85.5518 57.8941 C 83.9554 57.8941 83.8102 57.6057 83.8102 57.6057 L 83.8102 55.0097 C 84.681 54.2886 85.4066 53.5675 85.9872 52.7022 C 86.5677 51.8369 87.0031 50.9716 87.2933 49.9621 C 88.3092 49.6736 89.0349 48.8083 88.8898 47.7988 C 88.8898 47.3661 88.5995 46.9335 88.5995 46.5008 C 88.5995 46.2124 88.5995 46.0682 88.5995 45.7797 C 88.5995 45.6355 88.5995 45.4913 88.5995 45.3471 C 88.5995 45.2028 88.5995 45.0586 88.5995 44.9144 C 88.4544 44.1933 88.3092 43.328 87.7287 42.4627 C 86.4226 40.011 83.8102 38.4246 80.9076 38.4246 C 80.3271 38.4246 79.7466 38.5688 79.1661 38.5688 C 78.1502 38.8572 77.1343 39.2899 76.2635 39.8667 C 76.1184 40.011 75.9732 40.1552 75.8281 40.2994 C 75.8281 40.2994 75.683 40.2994 75.683 40.4436 C 74.8122 41.3089 74.0865 42.3185 73.6512 43.6164 C 73.2158 44.7702 73.2158 46.0682 73.3609 47.2219 C 73.3609 47.2219 73.3609 47.2219 73.3609 47.3661 C 73.3609 47.3661 73.3609 47.3661 73.3609 47.5103 C 73.3609 47.7988 73.506 47.6546 73.3609 47.943 C 73.3609 48.0872 73.2158 48.0872 73.2158 48.2314 C 73.0706 48.5199 72.9255 49.0968 73.0706 49.6736 C 73.506 50.8274 74.2317 50.6832 74.9573 51.26 C 74.9573 51.26 74.9573 51.26 74.8122 51.4043 L 73.9414 51.6927 C 70.3132 52.8464 70.6035 55.2982 72.0548 57.173 C 72.6353 57.8941 73.3609 57.894 74.8122 58.1825 C 74.3768 58.1825 72.7804 59.6247 72.6353 59.7689 C 71.0388 61.0669 70.0229 62.9418 69.7327 64.6724 C 69.7327 64.8166 69.7327 64.8166 69.7327 64.9608 C 70.1681 65.2493 70.6034 65.5377 71.0388 65.6819 L 89.4703 65.6819 C 90.6313 64.9608 91.7924 64.2397 92.8083 63.2302 C 92.518 62.7975 92.3729 62.5091 92.3729 62.3649 Z M 78.4404 57.173 C 78.1502 56.8846 78.005 56.8846 77.8599 56.7403 C 77.5697 56.5961 77.4245 56.4519 77.1343 56.3077 C 76.9891 56.3077 76.9891 56.1635 76.844 56.1635 C 76.1184 55.7308 75.3927 55.2982 75.3927 54.7213 C 75.3927 54.4328 75.683 54.0002 76.1184 53.7118 C 76.2635 54.0002 76.5538 54.2886 76.844 54.5771 C 77.1343 54.7213 77.2794 55.0097 77.5697 55.1539 C 77.7148 55.2982 77.8599 55.4424 78.005 55.4424 L 78.1502 55.4424 C 78.1502 55.4424 78.2953 55.4424 78.2953 55.5866 L 78.2953 57.173 L 78.4404 57.173 Z" stroke-linecap="round"/>
</g>
		<g transform="matrix(1 0 0 1 20.5522 -9.7073)">
<linearGradient id="SVGID_16" gradientUnits="userSpaceOnUse" gradientTransform="matrix(1 0 0 1 0 0)" x1="69.61" y1="62.5707" x2="92.558" y2="62.5707">
<stop offset="0%" style="stop-color:rgb(255,102,169);stop-opacity: 1"/>
<stop offset="100%" style="stop-color:rgb(245,54,137);stop-opacity: 1"/>
</linearGradient>
<path style="stroke: none; stroke-width: 1; stroke-dasharray: none; stroke-linecap: butt; stroke-dashoffset: 0; stroke-linejoin: miter; stroke-miterlimit: 4; is-custom-font: none; font-file-url: none; fill: url(#SVGID_16); fill-rule: nonzero; opacity: 1;" transform=" translate(-81.0523, -62.2927)" d="M 92.5175 62.9417 C 89.1795 65.9703 84.8256 67.8451 80.0364 67.8451 C 76.1179 67.8451 72.4896 66.6914 69.587 64.6723 C 69.587 64.5281 69.587 64.5281 69.587 64.3839 C 69.8773 62.509 70.8932 60.6342 72.4896 59.3362 C 72.7799 59.192 74.899 57.8189 75.1893 57.8189 C 73.8831 57.5304 72.6348 57.4613 72.0543 56.7402 L 74.8117 57.3171 C 75.9727 59.0478 78.0045 60.0573 80.3266 60.0573 C 82.2133 60.0573 83.9549 59.3362 85.1159 58.0382 C 85.261 58.0382 85.4062 58.0382 85.5513 58.0382 C 85.6964 58.0382 85.9867 58.0382 86.2769 58.0382 C 87.2928 58.0382 88.1636 58.3267 88.8893 58.6151 C 90.4857 59.3362 91.6467 60.7784 92.3724 62.3648 C 92.3724 62.509 92.5175 62.7975 92.5175 62.9417 Z" stroke-linecap="round"/>
</g>
		<g transform="matrix(1 0 0 1 19.754 -15.4761)">
<linearGradient id="SVGID_17" gradientUnits="userSpaceOnUse" gradientTransform="matrix(1 0 0 1 0 0)" x1="80.2516" y1="57.5028" x2="80.2516" y2="56.4016">
<stop offset="0%" style="stop-color:rgb(255,255,255);stop-opacity: 1"/>
<stop offset="99.13%" style="stop-color:rgb(230,237,247);stop-opacity: 1"/>
</linearGradient>
<path style="stroke: none; stroke-width: 1; stroke-dasharray: none; stroke-linecap: butt; stroke-dashoffset: 0; stroke-linejoin: miter; stroke-miterlimit: 4; is-custom-font: none; font-file-url: none; fill: url(#SVGID_17); fill-rule: nonzero; opacity: 1;" transform=" translate(-80.2541, -56.5239)" d="M 83.8097 55.1538 L 83.8097 57.6055 L 76.6984 57.894 L 77.1338 56.3076 C 77.2789 56.3076 77.2789 56.4518 77.424 56.4518 C 77.7143 56.596 77.8594 56.7402 78.1497 56.8844 C 78.2948 57.0286 78.4399 57.0286 78.5851 57.1729 C 78.5851 57.1729 78.5851 57.1729 78.7302 57.3171 L 78.7302 55.7307 C 78.7302 55.7307 78.5851 55.7307 78.5851 55.5865 C 79.7461 56.1633 81.4876 56.4518 83.8097 55.1538 Z" stroke-linecap="round"/>
</g>
		<g transform="matrix(1 0 0 1 20.3061 -29.3211)">
<path style="stroke: none; stroke-width: 1; stroke-dasharray: none; stroke-linecap: butt; stroke-dashoffset: 0; stroke-linejoin: miter; stroke-miterlimit: 4; is-custom-font: none; font-file-url: none; fill: rgb(28,55,84); fill-rule: nonzero; opacity: 1;" transform=" translate(-80.8061, -42.6789)" d="M 88.4539 45.3469 C 87.0026 45.7796 85.5513 46.068 84.1 45.9238 C 81.7779 45.7796 79.4558 44.7701 77.7143 43.1836 C 77.1338 44.9143 75.6825 46.2122 73.9409 46.9333 C 73.6506 47.0776 73.5055 47.0776 73.2153 47.2218 C 73.2153 47.2218 73.2153 47.2218 73.2153 47.0776 C 73.0701 45.7796 73.2153 44.6258 73.5055 43.3279 C 73.9409 42.1741 74.6666 41.0204 75.5373 40.155 C 75.5373 40.155 75.6825 40.155 75.6825 40.0108 C 75.8276 39.8666 75.9727 39.7224 76.1179 39.5782 C 76.9886 39.0013 78.0045 38.5686 79.0204 38.2802 C 79.601 38.136 80.1815 38.136 80.762 38.136 C 83.6646 38.136 86.2769 39.7224 87.5831 42.1741 C 88.0185 43.1836 88.3087 43.9047 88.4539 44.6258 C 88.4539 45.0585 88.4539 45.2027 88.4539 45.3469 Z" stroke-linecap="round"/>
</g>
		<g transform="matrix(1 0 0 1 14.4645 -15.2345)">
<path style="stroke: none; stroke-width: 1; stroke-dasharray: none; stroke-linecap: butt; stroke-dashoffset: 0; stroke-linejoin: miter; stroke-miterlimit: 4; is-custom-font: none; font-file-url: none; fill: rgb(28,55,84); fill-rule: nonzero; opacity: 1;" transform=" translate(-74.9645, -56.7655)" d="M 79.4546 61.9322 C 78.8741 62.6533 77.7131 62.7976 76.6972 62.6533 C 77.7131 61.6438 77.1326 58.3268 73.5043 58.7594 C 68.4248 57.7499 69.0053 52.7022 73.9397 51.1158 L 74.8105 50.8274 L 74.9556 50.9716 C 75.391 51.9811 75.8264 52.8465 76.4069 53.5675 C 74.3751 55.2982 77.1326 55.7308 78.5839 57.0288 C 79.5998 57.7499 80.6157 60.6343 79.4546 61.9322 Z" stroke-linecap="round"/>
</g>
		<g transform="matrix(1 0 0 1 19.536 -22.3987)">
<path style="stroke: rgb(255,255,255); stroke-width: 1.492; stroke-dasharray: none; stroke-linecap: round; stroke-dashoffset: 0; stroke-linejoin: round; stroke-miterlimit: 10; is-custom-font: none; font-file-url: none; fill: none; fill-rule: nonzero; opacity: 1;" transform=" translate(-80.0361, -49.6013)" d="M 98.4675 49.5292 C 98.4675 54.8653 96.1454 59.6246 92.5172 62.9416 C 89.1792 65.9702 84.8253 67.845 80.0361 67.845 C 76.1176 67.845 72.4893 66.6913 69.5867 64.6722 C 64.7975 61.3552 61.6046 55.8749 61.6046 49.6735 C 61.6046 39.5781 69.877 31.3577 80.0361 31.3577 C 90.1951 31.3577 98.4675 39.4339 98.4675 49.5292 Z" stroke-linecap="round"/>
</g>
		<g transform="matrix(1 0 0 1 -20.406 -19.7364)">
<path style="stroke: none; stroke-width: 1; stroke-dasharray: none; stroke-linecap: butt; stroke-dashoffset: 0; stroke-linejoin: miter; stroke-miterlimit: 4; is-custom-font: none; font-file-url: none; fill: rgb(233,240,248); fill-rule: nonzero; opacity: 1;" transform=" translate(-40.094, -52.2636)" d="M 57.9801 52.3419 C 57.9801 57.0399 56.0891 61.4246 53.0949 64.5566 C 52.7798 64.8698 52.6222 65.0264 52.307 65.3396 C 49.1553 68.3149 44.9004 70.0375 40.1728 70.0375 C 36.3907 70.0375 32.9238 68.9413 29.9297 66.9056 C 29.1417 66.2792 28.3538 65.6528 27.5658 65.0264 C 24.2565 61.7378 22.2079 57.3531 22.2079 52.3419 C 22.2079 42.4763 30.2448 34.4897 40.0152 34.4897 C 49.9432 34.4897 57.9801 42.4763 57.9801 52.3419 Z" stroke-linecap="round"/>
</g>
		<g transform="matrix(1 0 0 1 -20.406 -19.7364)">
<path style="stroke: none; stroke-width: 1; stroke-dasharray: none; stroke-linecap: butt; stroke-dashoffset: 0; stroke-linejoin: miter; stroke-miterlimit: 4; is-custom-font: none; font-file-url: none; fill: rgb(215,220,235); fill-rule: nonzero; opacity: 1;" transform=" translate(-40.094, -52.2636)" d="M 57.9801 52.3419 C 57.9801 57.5097 55.7739 62.2076 52.307 65.3396 C 49.1553 68.3149 44.9004 70.0375 40.1728 70.0375 C 36.3907 70.0375 32.9238 68.9413 29.9297 66.9056 C 25.202 63.7736 22.2079 58.2927 22.2079 52.3419 C 22.2079 42.4763 30.2448 34.4897 40.0152 34.4897 C 49.7856 34.4897 57.9801 42.4763 57.9801 52.3419 Z" stroke-linecap="round"/>
</g>
		<g transform="matrix(1 0 0 1 -20.3272 -16.3696)">
<path style="stroke: none; stroke-width: 1; stroke-dasharray: none; stroke-linecap: butt; stroke-dashoffset: 0; stroke-linejoin: miter; stroke-miterlimit: 4; is-custom-font: none; font-file-url: none; fill: rgb(255,255,255); fill-rule: nonzero; opacity: 1;" transform=" translate(-40.1728, -55.6304)" d="M 52.9373 64.5565 C 52.6221 64.8697 52.4645 65.0263 52.1494 65.3395 C 48.9976 68.3149 44.7428 70.0374 40.0152 70.0374 C 36.2331 70.0374 32.7662 68.9413 29.772 66.9055 C 28.9841 66.2791 28.1961 65.6527 27.4082 65.0263 C 27.7234 64.5565 28.5113 64.2433 29.9296 63.6169 L 30.5599 63.4603 C 31.6631 62.9905 33.0813 62.5207 34.9724 61.7377 C 35.2876 61.5811 35.4451 61.4245 35.7603 61.2679 C 35.9179 61.1113 35.9179 60.9548 36.0755 60.7982 C 36.2331 60.6416 36.2331 60.3284 36.2331 60.0152 L 36.2331 56.4134 L 36.0755 56.2568 C 35.7603 55.787 35.6027 55.3172 35.4451 54.6908 L 35.13 54.5342 C 34.1844 54.6908 34.342 53.7512 34.0269 51.8721 C 33.8693 51.0891 34.0269 50.9325 34.342 50.7759 L 34.6572 50.3061 C 34.0269 48.7401 33.7117 47.4873 33.7117 46.3911 C 33.7117 44.6685 34.4996 43.4158 35.6027 42.946 C 34.9724 41.6932 34.9724 41.2234 34.9724 41.2234 C 34.9724 41.2234 38.7545 41.8498 40.0152 41.5366 C 41.591 41.2234 44.1124 41.5366 45.0579 43.729 C 46.6338 44.3554 47.2642 45.2949 47.4218 46.3911 C 47.5793 48.1137 46.6338 49.9929 46.4762 50.6193 C 46.4762 50.6193 46.4762 50.6193 46.4762 50.7759 C 46.7914 50.9325 46.7914 51.0891 46.7914 51.7155 C 46.6338 53.438 46.6338 54.6908 45.6883 54.3776 L 44.9004 55.787 C 44.9004 55.9436 44.9004 56.1002 44.9004 56.1002 C 44.9004 56.4134 44.9004 56.8832 44.9004 59.8586 C 44.9004 60.1718 45.0579 60.485 45.2155 60.7982 C 45.2155 60.9548 45.3731 60.9548 45.3731 61.1114 C 45.5307 61.2679 45.8459 61.4245 46.0035 61.5811 C 48.2097 62.5207 49.628 62.9905 50.8887 63.4603 C 51.8342 63.9301 52.6221 64.2433 52.9373 64.5565 Z" stroke-linecap="round"/>
</g>
		<g transform="matrix(1 0 0 1 -20.3272 -6.3471)">
<path style="stroke: none; stroke-width: 1; stroke-dasharray: none; stroke-linecap: butt; stroke-dashoffset: 0; stroke-linejoin: miter; stroke-miterlimit: 4; is-custom-font: none; font-file-url: none; fill: rgb(160,176,196); fill-rule: nonzero; opacity: 1;" transform=" translate(-40.1728, -65.6529)" d="M 52.9373 64.5566 C 52.6221 64.8698 52.4645 65.0264 52.1494 65.3396 C 48.9976 68.315 44.7428 70.0376 40.0152 70.0376 C 36.2331 70.0376 32.7662 68.9414 29.772 66.9056 C 28.9841 66.2792 28.1961 65.6528 27.4082 65.0264 C 27.7234 64.5566 28.5113 64.2434 29.9296 63.617 L 30.5599 63.4604 C 31.6631 62.9906 33.0813 62.5209 34.9724 61.7379 C 35.2876 61.5813 35.4451 61.4247 35.7603 61.2681 C 36.8634 62.6774 38.5969 63.7736 40.4879 63.7736 C 42.379 63.7736 44.1124 62.8341 45.2155 61.4247 C 45.3731 61.5813 45.6883 61.7379 45.8459 61.8945 C 48.0521 62.834 49.4704 63.3038 50.7311 63.7736 C 51.8342 63.9302 52.6221 64.2434 52.9373 64.5566 Z" stroke-linecap="round"/>
</g>
		<g transform="matrix(1 0 0 1 -19.9327 -26.1568)">
<path style="stroke: none; stroke-width: 1; stroke-dasharray: none; stroke-linecap: butt; stroke-dashoffset: 0; stroke-linejoin: miter; stroke-miterlimit: 4; is-custom-font: none; font-file-url: none; fill: rgb(28,55,84); fill-rule: nonzero; opacity: 1;" transform=" translate(-40.5673, -45.8431)" d="M 46.4762 50.6194 C 46.4762 50.1496 46.3186 49.6798 46.161 49.21 C 46.161 49.21 46.161 49.0534 46.0035 49.0534 C 45.3731 47.4874 43.7972 46.861 42.2214 46.861 C 38.2817 46.7044 37.9665 47.3308 36.7058 46.2346 C 37.021 46.861 37.1786 47.644 36.5482 48.7402 C 36.0755 49.5232 35.2875 49.8364 34.6572 50.1496 C 32.9237 46.078 33.7117 43.5725 35.6027 42.7895 C 34.9724 41.5367 34.9724 41.0669 34.9724 41.0669 C 34.9724 41.0669 38.7545 41.6933 40.0151 41.3801 C 41.591 41.0669 44.1124 41.3801 45.0579 43.5725 C 46.6338 44.1989 47.2642 45.1384 47.4217 46.2346 C 47.5793 47.9572 46.6338 49.8364 46.4762 50.6194 Z" stroke-linecap="round"/>
</g>
		<g transform="matrix(1 0 0 1 -19.9336 -13.7855)">
<linearGradient id="SVGID_18" gradientUnits="userSpaceOnUse" gradientTransform="matrix(1 0 0 1 0 0)" x1="40.4277" y1="60.4199" x2="40.4277" y2="57.9129">
<stop offset="0%" style="stop-color:rgb(255,255,255);stop-opacity: 1"/>
<stop offset="99.13%" style="stop-color:rgb(230,237,247);stop-opacity: 1"/>
</linearGradient>
<path style="stroke: none; stroke-width: 1; stroke-dasharray: none; stroke-linecap: butt; stroke-dashoffset: 0; stroke-linejoin: miter; stroke-miterlimit: 4; is-custom-font: none; font-file-url: none; fill: url(#SVGID_18); fill-rule: nonzero; opacity: 1;" transform=" translate(-40.5665, -58.2145)" d="M 36.2328 59.8588 L 36.2328 56.257 L 36.0752 56.1004 L 36.0752 55.9438 C 36.2328 56.257 36.548 56.5702 36.8631 56.8834 L 39.6997 58.9192 C 40.33 59.5456 41.2756 59.5456 42.0635 58.9192 L 44.7425 56.5702 C 44.9001 56.5702 44.9001 56.4136 45.0577 56.257 C 45.0577 56.5702 45.0577 57.04 45.0577 60.0154 C 45.0577 60.172 45.0577 60.3286 45.0577 60.4852 L 36.2328 60.4852 C 36.0752 60.172 36.2328 60.0154 36.2328 59.8588 Z" stroke-linecap="round"/>
</g>
		<g transform="matrix(1 0 0 1 -20.406 -19.7364)">
<path style="stroke: rgb(255,255,255); stroke-width: 1.3062; stroke-dasharray: none; stroke-linecap: round; stroke-dashoffset: 0; stroke-linejoin: round; stroke-miterlimit: 10; is-custom-font: none; font-file-url: none; fill: none; fill-rule: nonzero; opacity: 1;" transform=" translate(-40.094, -52.2636)" d="M 57.9801 52.3419 C 57.9801 57.5097 55.7739 62.2076 52.307 65.3396 C 49.1553 68.3149 44.9004 70.0375 40.1728 70.0375 C 36.3907 70.0375 32.9238 68.9413 29.9297 66.9056 C 25.202 63.7736 22.2079 58.2927 22.2079 52.3419 C 22.2079 42.4763 30.2448 34.4897 40.0152 34.4897 C 49.7856 34.4897 57.9801 42.4763 57.9801 52.3419 Z" stroke-linecap="round"/>
</g>
		<g transform="matrix(1 0 0 1 0.0803 -43.2261)">
<path style="stroke: none; stroke-width: 1; stroke-dasharray: none; stroke-linecap: butt; stroke-dashoffset: 0; stroke-linejoin: miter; stroke-miterlimit: 4; is-custom-font: none; font-file-url: none; fill: rgb(233,240,248); fill-rule: nonzero; opacity: 1;" transform=" translate(-60.5803, -28.7739)" d="M 78.4665 28.8522 C 78.4665 33.5501 76.5754 37.9349 73.5813 41.0668 C 73.2661 41.38 73.1085 41.5366 72.7933 41.8498 C 69.6416 44.8252 65.3867 46.5478 60.6591 46.5478 C 56.877 46.5478 53.4101 45.4516 50.416 43.4158 C 49.628 42.7894 48.8401 42.163 48.0522 41.5366 C 44.7428 38.2481 42.6942 33.8633 42.6942 28.8522 C 42.6942 18.9865 50.7311 11 60.5015 11 C 70.4295 11.1566 78.4665 18.9865 78.4665 28.8522 Z" stroke-linecap="round"/>
</g>
		<g transform="matrix(1 0 0 1 0.0803 -43.2261)">
<path style="stroke: none; stroke-width: 1; stroke-dasharray: none; stroke-linecap: butt; stroke-dashoffset: 0; stroke-linejoin: miter; stroke-miterlimit: 4; is-custom-font: none; font-file-url: none; fill: rgb(215,220,235); fill-rule: nonzero; opacity: 1;" transform=" translate(-60.5803, -28.7739)" d="M 78.4665 28.8522 C 78.4665 34.0199 76.2602 38.7179 72.7933 41.8498 C 69.6416 44.8252 65.3867 46.5478 60.6591 46.5478 C 56.877 46.5478 53.4101 45.4516 50.416 43.4158 C 45.6884 40.2838 42.6942 34.8029 42.6942 28.8522 C 42.6942 18.9865 50.7311 11 60.5015 11 C 70.2719 11 78.4665 18.9865 78.4665 28.8522 Z" stroke-linecap="round"/>
</g>
		<g transform="matrix(1 0 0 1 0.1592 -39.8593)">
<path style="stroke: none; stroke-width: 1; stroke-dasharray: none; stroke-linecap: butt; stroke-dashoffset: 0; stroke-linejoin: miter; stroke-miterlimit: 4; is-custom-font: none; font-file-url: none; fill: rgb(255,255,255); fill-rule: nonzero; opacity: 1;" transform=" translate(-60.6592, -32.1407)" d="M 73.4237 41.0668 C 73.1086 41.38 72.951 41.5366 72.6358 41.8498 C 69.4841 44.8251 65.2292 46.5477 60.5016 46.5477 C 56.7195 46.5477 53.2526 45.4515 50.2585 43.4157 C 49.4705 42.7893 48.6826 42.1629 47.8947 41.5366 C 48.2098 41.0668 48.9978 40.7536 50.416 40.1272 L 51.0464 39.9706 C 52.1495 39.5008 53.5678 39.031 55.4588 38.248 C 55.774 38.0914 55.9316 37.9348 56.2468 37.7782 C 56.4043 37.6216 56.4044 37.465 56.5619 37.3084 C 56.7195 37.1518 56.7195 36.8386 56.7195 36.5254 L 56.7195 32.9237 L 56.5619 32.7671 C 56.2468 32.2973 56.0892 31.8275 55.9316 31.2011 L 55.6164 31.0445 C 54.6709 31.2011 54.8285 30.2615 54.5133 28.3823 C 54.3557 27.5993 54.5133 27.4427 54.8285 27.2861 L 55.1437 26.8163 C 54.5133 25.2504 54.1981 23.9976 54.1981 22.9014 C 54.1981 21.1788 54.9861 19.926 56.0892 19.4562 C 55.4588 18.2034 55.4588 17.7336 55.4588 17.7336 C 55.4588 17.7336 59.2409 18.36 60.5016 18.0468 C 62.0775 17.7336 64.5989 18.0468 65.5444 20.2392 C 67.1203 20.8656 67.7506 21.8052 67.9082 22.9014 C 68.0658 24.624 67.1203 26.5031 66.9627 27.1295 C 66.9627 27.1295 66.9627 27.1295 66.9627 27.2861 C 67.2778 27.2861 67.2779 27.4427 67.2779 28.2257 C 67.1203 29.9483 67.1203 31.2011 66.1747 30.8879 L 65.3868 32.2973 C 65.3868 32.4539 65.3868 32.6105 65.3868 32.6105 C 65.3868 32.9237 65.3868 33.3935 65.3868 36.3688 C 65.3868 36.682 65.5444 36.9952 65.702 37.3084 C 65.702 37.465 65.8596 37.465 65.8596 37.6216 C 66.0172 37.7782 66.3323 37.9348 66.4899 38.0914 C 68.6961 39.031 70.1144 39.5008 71.3751 39.9706 C 72.3206 40.4404 72.951 40.7536 73.4237 41.0668 Z" stroke-linecap="round"/>
</g>
		<g transform="matrix(1 0 0 1 0.1592 -29.8371)">
<linearGradient id="SVGID_19" gradientUnits="userSpaceOnUse" gradientTransform="matrix(1 0 0 1 0 0)" x1="47.961" y1="42.0928" x2="73.4649" y2="42.0928">
<stop offset="0%" style="stop-color:rgb(131,166,255);stop-opacity: 1"/>
<stop offset="100%" style="stop-color:rgb(90,120,255);stop-opacity: 1"/>
</linearGradient>
<path style="stroke: none; stroke-width: 1; stroke-dasharray: none; stroke-linecap: butt; stroke-dashoffset: 0; stroke-linejoin: miter; stroke-miterlimit: 4; is-custom-font: none; font-file-url: none; fill: url(#SVGID_19); fill-rule: nonzero; opacity: 1;" transform=" translate(-60.6592, -42.1629)" d="M 73.4237 41.0666 C 73.1086 41.3798 72.951 41.5364 72.6358 41.8496 C 69.4841 44.825 65.2292 46.5476 60.5016 46.5476 C 56.7195 46.5476 53.2526 45.4514 50.2585 43.4156 C 49.4705 42.7892 48.6826 42.1628 47.8947 41.5364 C 48.2098 41.0666 48.9978 40.7534 50.416 40.127 L 51.0464 39.9704 C 52.1495 39.5007 53.5678 39.0309 55.4588 38.2479 C 55.774 38.0913 55.9316 37.9347 56.2468 37.7781 C 57.3499 39.1875 59.0833 40.2836 60.9744 40.2836 C 62.8654 40.2836 64.5989 39.3441 65.702 37.9347 C 65.8596 38.0913 66.1747 38.2479 66.3323 38.4045 C 68.5385 39.3441 69.9568 39.8138 71.2175 40.2836 C 72.3206 40.4402 72.951 40.7534 73.4237 41.0666 Z" stroke-linecap="round"/>
</g>
		<g transform="matrix(1 0 0 1 0.5536 -49.5684)">
<path style="stroke: none; stroke-width: 1; stroke-dasharray: none; stroke-linecap: butt; stroke-dashoffset: 0; stroke-linejoin: miter; stroke-miterlimit: 4; is-custom-font: none; font-file-url: none; fill: rgb(28,55,84); fill-rule: nonzero; opacity: 1;" transform=" translate(-61.0537, -22.4316)" d="M 66.9625 27.1295 C 66.9625 26.6597 66.805 26.1899 66.6474 25.7201 C 66.6474 25.7201 66.6474 25.5635 66.4898 25.5635 C 65.7018 24.1542 64.126 23.5278 62.7077 23.5278 C 58.768 23.3712 58.4528 23.9976 57.1922 22.9014 C 57.5073 23.5278 57.6649 24.3108 57.0346 25.407 C 56.5618 26.1899 55.7739 26.5031 55.1435 26.8163 C 53.4101 22.7448 54.198 20.2392 56.089 19.4562 C 55.4587 18.2034 55.4587 17.7336 55.4587 17.7336 C 55.4587 17.7336 59.2408 18.36 60.5015 18.0468 C 62.0773 17.7336 64.5987 18.0468 65.5443 20.2392 C 67.1201 20.8656 67.7505 21.8052 67.9081 22.9014 C 68.0657 24.4674 67.1201 26.3465 66.9625 27.1295 Z" stroke-linecap="round"/>
</g>
		<g transform="matrix(1 0 0 1 0.3956 -37.2755)">
<linearGradient id="SVGID_20" gradientUnits="userSpaceOnUse" gradientTransform="matrix(1 0 0 1 0 0)" x1="60.8906" y1="36.9468" x2="60.8906" y2="34.4398">
<stop offset="0%" style="stop-color:rgb(255,255,255);stop-opacity: 1"/>
<stop offset="99.13%" style="stop-color:rgb(230,237,247);stop-opacity: 1"/>
</linearGradient>
<path style="stroke: none; stroke-width: 1; stroke-dasharray: none; stroke-linecap: butt; stroke-dashoffset: 0; stroke-linejoin: miter; stroke-miterlimit: 4; is-custom-font: none; font-file-url: none; fill: url(#SVGID_20); fill-rule: nonzero; opacity: 1;" transform=" translate(-60.8957, -34.7245)" d="M 56.562 36.3688 L 56.562 32.7671 L 56.4044 32.6105 L 56.4044 32.4539 C 56.562 32.7671 56.8772 33.0802 57.1924 33.3934 L 60.0289 35.4292 C 60.6593 36.0556 61.6048 36.0556 62.3927 35.4292 L 65.0717 33.0802 C 65.2293 33.0802 65.2293 32.9237 65.3869 32.7671 C 65.3869 33.0802 65.3869 33.55 65.3869 36.5254 C 65.3869 36.682 65.3869 36.8386 65.3869 36.9952 L 56.562 36.9952 C 56.562 36.682 56.562 36.5254 56.562 36.3688 Z" stroke-linecap="round"/>
</g>
		<g transform="matrix(1 0 0 1 0.0803 -43.2261)">
<path style="stroke: rgb(255,255,255); stroke-width: 1.3062; stroke-dasharray: none; stroke-linecap: round; stroke-dashoffset: 0; stroke-linejoin: round; stroke-miterlimit: 10; is-custom-font: none; font-file-url: none; fill: none; fill-rule: nonzero; opacity: 1;" transform=" translate(-60.5803, -28.7739)" d="M 78.4665 28.8522 C 78.4665 34.0199 76.2602 38.7179 72.7933 41.8498 C 69.6416 44.8252 65.3867 46.5478 60.6591 46.5478 C 56.877 46.5478 53.4101 45.4516 50.416 43.4158 C 45.6884 40.2838 42.6942 34.8029 42.6942 28.8522 C 42.6942 18.9865 50.7311 11 60.5015 11 C 70.2719 11 78.4665 18.9865 78.4665 28.8522 Z" stroke-linecap="round"/>
</g>
		<g transform="matrix(1 0 0 1 14.0791 7.68)">
<linearGradient id="SVGID_21" gradientUnits="userSpaceOnUse" gradientTransform="matrix(1 0 0 1 0 0)" x1="71.7433" y1="83.2414" x2="76.7054" y2="76.1755">
<stop offset="0%" style="stop-color:rgb(131,166,255);stop-opacity: 1"/>
<stop offset="100%" style="stop-color:rgb(90,120,255);stop-opacity: 1"/>
</linearGradient>
<path style="stroke: none; stroke-width: 1; stroke-dasharray: none; stroke-linecap: butt; stroke-dashoffset: 0; stroke-linejoin: miter; stroke-miterlimit: 4; is-custom-font: none; font-file-url: none; fill: url(#SVGID_21); fill-rule: nonzero; opacity: 1;" transform=" translate(-74.579, -79.68)" d="M 72.3618 81.6828 L 74.5075 81.6196 L 74.5987 85.0707 C 74.593 85.4077 75.1201 85.5057 75.2159 85.1505 L 77.2657 78.9694 C 77.3509 78.6536 77.1367 78.3427 76.7976 78.3371 L 74.334 78.3157 L 73.8542 74.2533 C 73.8201 73.9058 73.3115 73.8973 73.2661 74.2237 L 71.8936 81.0505 C 71.7978 81.4057 72.0624 81.6877 72.3618 81.6828 Z" stroke-linecap="round"/>
</g>
		<g transform="matrix(1 0 0 1 15.1597 7.0041)">
<path style="stroke: none; stroke-width: 1; stroke-dasharray: none; stroke-linecap: butt; stroke-dashoffset: 0; stroke-linejoin: miter; stroke-miterlimit: 4; is-custom-font: none; font-file-url: none; fill: rgb(150,174,255); fill-rule: nonzero; opacity: 1;" transform=" translate(-75.6597, -79.0041)" d="M 76.7627 79.2585 C 76.723 79.2479 76.7124 79.2874 76.6726 79.2768 L 74.5985 79.2322 C 74.4687 79.2399 74.3311 79.1187 74.3737 78.9608 C 74.3659 78.8318 74.4879 78.6951 74.6468 78.7374 L 76.7209 78.782 C 76.8507 78.7742 76.9883 78.8955 76.9458 79.0534 C 76.9642 79.1429 76.8925 79.2507 76.7627 79.2585 Z" stroke-linecap="round"/>
</g>
		<g transform="matrix(1 0 0 1 12.4819 6.1977)">
<path style="stroke: none; stroke-width: 1; stroke-dasharray: none; stroke-linecap: butt; stroke-dashoffset: 0; stroke-linejoin: miter; stroke-miterlimit: 4; is-custom-font: none; font-file-url: none; fill: rgb(150,174,255); fill-rule: nonzero; opacity: 1;" transform=" translate(-72.9819, -78.1977)" d="M 72.386 80.8011 L 73.2853 75.4136 C 73.3065 75.3347 73.3675 75.2663 73.447 75.2874 C 73.5264 75.3086 73.5952 75.3692 73.574 75.4482 L 72.8734 80.8885 C 72.8414 81.0069 72.73 81.1042 72.6002 81.1119 C 72.4811 81.0802 72.3832 80.9695 72.386 80.8011 Z" stroke-linecap="round"/>
</g>
		<g transform="matrix(1 0 0 1 -16.2472 7.4828)">
<linearGradient id="SVGID_22" gradientUnits="userSpaceOnUse" gradientTransform="matrix(1 0 0 1 0 0)" x1="41.417" y1="83.0442" x2="46.3791" y2="75.9782">
<stop offset="0%" style="stop-color:rgb(131,166,255);stop-opacity: 1"/>
<stop offset="100%" style="stop-color:rgb(90,120,255);stop-opacity: 1"/>
</linearGradient>
<path style="stroke: none; stroke-width: 1; stroke-dasharray: none; stroke-linecap: butt; stroke-dashoffset: 0; stroke-linejoin: miter; stroke-miterlimit: 4; is-custom-font: none; font-file-url: none; fill: url(#SVGID_22); fill-rule: nonzero; opacity: 1;" transform=" translate(-44.2528, -79.4827)" d="M 42.0355 81.4856 L 44.1812 81.4223 L 44.2724 84.8735 C 44.2667 85.2104 44.7938 85.3084 44.8896 84.9532 L 46.9394 78.7721 C 47.0246 78.4563 46.8104 78.1455 46.4713 78.1398 L 44.0077 78.1184 L 43.5279 74.0561 C 43.4938 73.7086 42.9852 73.7001 42.9398 74.0264 L 41.5673 80.8532 C 41.4716 81.2085 41.7361 81.4905 42.0355 81.4856 Z" stroke-linecap="round"/>
</g>
		<g transform="matrix(1 0 0 1 -15.1676 6.8068)">
<path style="stroke: none; stroke-width: 1; stroke-dasharray: none; stroke-linecap: butt; stroke-dashoffset: 0; stroke-linejoin: miter; stroke-miterlimit: 4; is-custom-font: none; font-file-url: none; fill: rgb(150,174,255); fill-rule: nonzero; opacity: 1;" transform=" translate(-45.3324, -78.8068)" d="M 46.4355 79.0612 C 46.3957 79.0506 46.3851 79.0901 46.3454 79.0795 L 44.2712 79.0349 C 44.1414 79.0427 44.0038 78.9214 44.0464 78.7635 C 44.0386 78.6345 44.1606 78.4978 44.3195 78.5401 L 46.3936 78.5847 C 46.5235 78.5769 46.6611 78.6982 46.6185 78.8561 C 46.6369 78.9456 46.5653 79.0535 46.4355 79.0612 Z" stroke-linecap="round"/>
</g>
		<g transform="matrix(1 0 0 1 -17.8444 6.0007)">
<path style="stroke: none; stroke-width: 1; stroke-dasharray: none; stroke-linecap: butt; stroke-dashoffset: 0; stroke-linejoin: miter; stroke-miterlimit: 4; is-custom-font: none; font-file-url: none; fill: rgb(150,174,255); fill-rule: nonzero; opacity: 1;" transform=" translate(-42.6556, -78.0007)" d="M 42.0597 80.604 L 42.959 75.2166 C 42.9802 75.1376 43.0413 75.0693 43.1207 75.0904 C 43.2001 75.1116 43.2689 75.1722 43.2477 75.2511 L 42.5471 80.6915 C 42.5151 80.8099 42.4038 80.9072 42.2739 80.9149 C 42.1548 80.8832 42.0569 80.7725 42.0597 80.604 Z" stroke-linecap="round"/>
</g>
</g>
</g>
</svg>