<svg width="838" height="813" viewBox="0 0 838 813" fill="none" xmlns="http://www.w3.org/2000/svg">
<g opacity="0.1">
<rect width="812.008" height="1.47638" transform="matrix(-1 0 0 1 812.008 131.397)" fill="url(#paint0_linear_135_2326)"/>
<rect width="812.008" height="1.47638" transform="matrix(-1 0 0 1 812.007 268.701)" fill="url(#paint1_linear_135_2326)"/>
<rect width="812.008" height="1.47638" transform="matrix(-1 0 0 1 812.007 406.004)" fill="url(#paint2_linear_135_2326)"/>
<rect width="812.008" height="1.47638" transform="matrix(-1 0 0 1 812.007 543.307)" fill="url(#paint3_linear_135_2326)"/>
<rect width="812.008" height="1.47638" transform="matrix(-1 0 0 1 812.007 680.61)" fill="url(#paint4_linear_135_2326)"/>
<rect width="812.008" height="1.47638" transform="matrix(4.37114e-08 1 1 -4.37114e-08 748.523 0)" fill="url(#paint5_linear_135_2326)"/>
<rect width="812.008" height="1.47638" transform="matrix(4.37114e-08 1 1 -4.37114e-08 611.22 0)" fill="url(#paint6_linear_135_2326)"/>
<rect width="812.008" height="1.47638" transform="matrix(4.37114e-08 1 1 -4.37114e-08 473.917 0)" fill="url(#paint7_linear_135_2326)"/>
<rect width="812.008" height="1.47638" transform="matrix(4.37114e-08 1 1 -4.37114e-08 336.614 0)" fill="url(#paint8_linear_135_2326)"/>
<rect width="812.008" height="1.47638" transform="matrix(4.37114e-08 1 1 -4.37114e-08 199.311 0)" fill="url(#paint9_linear_135_2326)"/>
<rect width="812.008" height="1.47638" transform="matrix(4.37114e-08 1 1 -4.37114e-08 62.0073 0)" fill="url(#paint10_linear_135_2326)"/>
<rect width="812.008" height="177.165" transform="matrix(-1 0 0 1 812.008 0)" fill="url(#paint11_linear_135_2326)"/>
<rect x="812.008" y="812.008" width="812.008" height="267.224" transform="rotate(180 812.008 812.008)" fill="url(#paint12_linear_135_2326)"/>
</g>
<path d="M642.12 405.979C642.12 456.202 625.278 503.394 597.208 540.628C581.661 560.976 563.092 578.727 541.499 592.582C506.952 615.528 465.062 628.517 420.582 628.517C298.369 628.95 199.044 529.371 199.044 405.979C199.044 283.02 297.937 183.008 420.582 183.008C465.062 183.008 506.52 195.997 541.499 218.943C563.092 232.798 581.661 250.549 597.208 270.898C625.278 308.565 642.12 355.324 642.12 405.979Z" fill="#1B2034"/>
<path d="M385.602 184.742C389.488 184.742 392.943 181.711 392.943 177.382C392.943 173.485 389.92 170.021 385.602 170.021C381.715 170.021 378.26 173.052 378.26 177.382C378.692 181.711 381.715 184.742 385.602 184.742Z" fill="url(#paint13_linear_135_2326)"/>
<path d="M509.975 198.163C512.998 198.163 515.589 195.565 515.589 192.535C515.589 189.504 512.998 186.906 509.975 186.906C506.952 186.906 504.361 189.504 504.361 192.535C504.361 195.565 506.952 198.163 509.975 198.163Z" fill="url(#paint14_linear_135_2326)"/>
<path d="M666.303 381.302C672.781 375.241 673.213 365.283 667.167 358.356C661.121 351.861 651.189 351.428 644.711 357.49C638.233 363.551 637.802 373.509 643.847 380.436C649.893 386.498 659.826 386.93 666.303 381.302Z" fill="#EAEEF9"/>
<path d="M352.782 310.73L347.6 302.504" stroke="#BBC6D8" stroke-width="1.5" stroke-miterlimit="10" stroke-linecap="round" stroke-linejoin="round"/>
<path d="M323.417 312.029L361.42 369.179L394.24 377.405L357.533 318.091" stroke="#BBC6D8" stroke-width="1.5" stroke-miterlimit="10" stroke-linecap="round" stroke-linejoin="round"/>
<path d="M398.558 424.596H366.601C365.306 424.596 364.442 423.73 364.442 422.431C364.442 421.133 365.306 420.267 366.601 420.267H398.558C399.853 420.267 400.717 421.133 400.717 422.431C400.717 423.73 399.853 424.596 398.558 424.596Z" fill="white"/>
<path d="M172.269 576.563H678.395" stroke="#D6DEE8" stroke-width="2" stroke-miterlimit="10" stroke-linecap="round" stroke-linejoin="round"/>
<path d="M628.733 323.285C624.846 327.182 619.232 329.347 613.618 328.914H612.754C609.299 328.914 605.845 330.213 603.254 332.81C600.662 335.408 599.367 338.872 599.799 342.335V342.768C600.231 348.397 598.071 354.025 594.185 357.922C590.298 361.818 584.684 363.983 579.07 363.55H578.638C575.183 363.55 571.729 364.849 569.138 367.014C566.546 369.611 565.251 373.075 565.251 376.539C565.683 382.167 563.524 387.795 559.637 391.692C555.75 395.589 550.136 397.753 544.522 397.32H542.795C541.067 397.32 539.34 395.589 539.34 393.424C539.34 391.692 541.067 389.96 543.227 389.96H544.954C548.409 390.393 552.296 389.094 554.887 386.497C557.478 383.899 558.773 380.435 558.773 376.972C558.341 371.343 560.501 365.715 564.387 361.818C568.274 357.922 573.888 355.757 579.502 356.19H579.934C583.389 356.19 586.843 354.891 589.434 352.726C592.026 350.128 593.321 346.665 593.321 343.201V342.768C592.889 337.14 595.048 331.511 598.935 327.615C602.822 323.718 608.436 321.554 614.05 321.987H614.913C618.8 322.419 622.687 320.255 625.278 317.224C626.573 315.492 628.733 315.492 630.028 316.791C631.756 318.09 631.756 320.255 630.46 321.554C629.596 322.419 629.164 322.852 628.733 323.285Z" fill="#DAE1ED"/>
<path d="M592.89 419.834H509.543L551.865 485.21C554.887 489.54 559.638 492.138 564.388 492.138H629.165C633.484 492.138 636.507 486.942 633.916 483.479L592.89 419.834Z" fill="#DAE1ED"/>
<path d="M393.808 508.157H301.393C299.234 508.157 297.506 506.426 297.506 504.261C297.506 502.096 299.234 500.364 301.393 500.364H393.808C395.968 500.364 397.695 502.096 397.695 504.261C397.263 506.426 395.968 508.157 393.808 508.157Z" fill="#DAE1ED"/>
<path d="M393.808 545.029H301.393C299.234 545.029 297.506 543.298 297.506 541.133C297.506 538.968 299.234 537.236 301.393 537.236H393.808C395.968 537.236 397.695 538.968 397.695 541.133C397.263 543.298 395.968 545.029 393.808 545.029Z" fill="#DAE1ED"/>
<path d="M344.146 563.647H301.393C299.234 563.647 297.506 561.915 297.506 559.75C297.506 557.585 299.234 555.854 301.393 555.854H344.146C346.305 555.854 348.033 557.585 348.033 559.75C347.601 561.915 345.873 563.647 344.146 563.647Z" fill="#DAE1ED"/>
<path d="M189.975 251.416L167.951 229.335" stroke="#BBC6D8" stroke-width="1.5" stroke-miterlimit="10" stroke-linecap="round" stroke-linejoin="round"/>
<path d="M246.548 308.131L201.204 262.671" stroke="#BBC6D8" stroke-width="1.5" stroke-miterlimit="10" stroke-linecap="round" stroke-linejoin="round"/>
<path d="M497.451 260.507L515.157 234.53" stroke="#BBC6D8" stroke-width="1.5" stroke-miterlimit="10" stroke-linecap="round" stroke-linejoin="round"/>
<path d="M509.543 319.39L526.817 293.846" stroke="#BBC6D8" stroke-width="1.5" stroke-miterlimit="10" stroke-linecap="round" stroke-linejoin="round"/>
<path d="M520.771 343.201L538.045 317.657" stroke="#BBC6D8" stroke-width="1.5" stroke-miterlimit="10" stroke-linecap="round" stroke-linejoin="round"/>
<path d="M452.538 326.75L488.381 273.497" stroke="#BBC6D8" stroke-width="1.5" stroke-miterlimit="10" stroke-linecap="round" stroke-linejoin="round"/>
<path d="M406.331 196.864L405.899 165.691" stroke="#BBC6D8" stroke-width="1.5" stroke-miterlimit="10" stroke-linecap="round" stroke-linejoin="round"/>
<path d="M407.627 276.959L406.763 212.882" stroke="#BBC6D8" stroke-width="1.5" stroke-miterlimit="10" stroke-linecap="round" stroke-linejoin="round"/>
<path d="M460.744 255.313L474.131 192.535" stroke="#BBC6D8" stroke-width="1.5" stroke-miterlimit="10" stroke-linecap="round" stroke-linejoin="round"/>
<path d="M454.698 284.321L458.153 266.57" stroke="#BBC6D8" stroke-width="1.5" stroke-miterlimit="10" stroke-linecap="round" stroke-linejoin="round"/>
<path d="M253.89 339.306L191.704 276.96" stroke="#BBC6D8" stroke-width="1.5" stroke-miterlimit="10" stroke-linecap="round" stroke-linejoin="round"/>
<path d="M405.9 322.852C408.491 322.852 410.65 320.687 410.65 318.09C410.65 315.492 408.491 313.327 405.9 313.327C403.309 313.327 401.15 315.492 401.15 318.09C400.718 320.687 402.877 322.852 405.9 322.852Z" fill="url(#paint15_linear_135_2326)"/>
<path d="M188.679 335.408C192.134 335.408 194.725 332.811 194.725 329.347C194.725 325.883 192.134 323.286 188.679 323.286C185.225 323.286 182.634 325.883 182.634 329.347C182.634 332.811 185.225 335.408 188.679 335.408Z" fill="url(#paint16_linear_135_2326)"/>
<path d="M493.997 330.213C497.019 330.213 499.179 327.615 499.179 325.017C499.179 321.987 497.019 319.822 493.997 319.822C490.974 319.822 488.814 322.419 488.814 325.017C488.383 327.615 490.974 330.213 493.997 330.213Z" fill="url(#paint17_linear_135_2326)"/>
<path d="M646.87 300.34C649.893 300.34 652.484 297.743 652.484 294.712C652.484 291.681 649.893 289.083 646.87 289.083C643.847 289.083 641.256 291.681 641.256 294.712C640.824 297.743 643.415 300.34 646.87 300.34Z" fill="url(#paint18_linear_135_2326)"/>
<path d="M415.581 327.494V535.813C415.581 540.755 411.569 544.767 406.627 544.767H231.727C226.784 544.767 222.772 540.755 222.772 535.813V327.494C222.772 322.552 226.784 318.541 231.727 318.541H406.637C410.607 318.541 413.968 321.125 415.147 324.703C415.426 325.582 415.581 326.522 415.581 327.494Z" fill="url(#paint19_linear_135_2326)"/>
<path d="M608.389 327.494V535.813C608.389 540.755 604.377 544.767 599.435 544.767H424.535C419.592 544.767 415.581 540.755 415.581 535.813V327.494C415.581 326.874 415.643 326.264 415.767 325.675C416.604 321.601 420.213 318.541 424.535 318.541H599.445C604.388 318.541 608.389 322.552 608.389 327.494Z" fill="url(#paint20_linear_135_2326)"/>
<path opacity="0.67" d="M415.137 321.342V514.007C415.137 519.001 411.094 523.054 406.089 523.054H243.204C238.21 523.054 234.167 519.001 234.167 514.007V315.18H406.637C410.597 315.18 413.968 317.765 415.137 321.342Z" fill="white"/>
<path opacity="0.67" d="M596.747 315.18V514.007C596.747 519.001 592.704 523.054 587.71 523.054H424.815C419.82 523.054 415.778 519.001 415.778 514.007V322.314C416.615 318.241 420.224 315.18 424.546 315.18H596.747Z" fill="white"/>
<path d="M406.627 518.608H247.144C242.201 518.608 238.189 514.596 238.189 509.654V301.336C238.189 296.394 242.201 292.382 247.144 292.382H396.99C407.257 292.382 415.581 300.705 415.581 310.972V509.654C415.581 514.596 411.569 518.608 406.627 518.608Z" fill="#EFEFEF"/>
<path opacity="0.39" d="M415.581 310.972V313.443C415.581 303.176 407.257 294.853 396.99 294.853H247.144C242.201 294.853 238.189 298.865 238.189 303.807V301.336C238.189 296.394 242.201 292.382 247.144 292.382H396.99C407.257 292.382 415.581 300.705 415.581 310.972Z" fill="#D8D8DB"/>
<path d="M592.972 301.336V509.654C592.972 514.596 588.961 518.608 584.018 518.608H424.535C419.592 518.608 415.581 514.596 415.581 509.654V310.972C415.581 307.229 416.687 303.755 418.579 300.84C421.898 295.753 427.637 292.382 434.172 292.382H584.018C588.847 292.382 592.786 296.207 592.962 300.984C592.962 301.108 592.972 301.222 592.972 301.336Z" fill="#EFEFEF"/>
<path opacity="0.6" d="M592.972 301.336V509.654C592.972 514.596 588.961 518.608 584.018 518.608H424.535C419.592 518.608 415.581 514.596 415.581 509.654V310.972C415.581 307.229 416.687 303.755 418.579 300.84C421.898 295.753 427.637 292.382 434.172 292.382H584.018C588.847 292.382 592.786 296.207 592.962 300.984C592.962 301.108 592.972 301.222 592.972 301.336Z" fill="white"/>
<path opacity="0.57" d="M377.985 368.014H374.449C360.149 368.014 348.454 356.32 348.454 342.021C348.454 327.722 360.149 316.028 374.449 316.028H377.985C392.285 316.028 403.98 327.722 403.98 342.021C403.969 356.32 392.275 368.014 377.985 368.014Z" fill="#D8D8DB"/>
<path opacity="0.57" d="M565.975 409.899H443.84C441.617 409.899 439.807 408.079 439.807 405.856V398.795C439.807 396.572 441.627 394.752 443.84 394.752H565.975C568.198 394.752 570.007 396.572 570.007 398.795V405.856C570.018 408.079 568.198 409.899 565.975 409.899Z" fill="#D8D8DB"/>
<path opacity="0.57" d="M565.975 447.245H443.84C441.617 447.245 439.807 445.426 439.807 443.203V436.141C439.807 433.918 441.627 432.098 443.84 432.098H565.975C568.198 432.098 570.007 433.918 570.007 436.141V443.203C570.018 445.426 568.198 447.245 565.975 447.245Z" fill="#D8D8DB"/>
<path opacity="0.57" d="M565.975 484.591H443.84C441.617 484.591 439.807 482.771 439.807 480.559V473.497C439.807 471.274 441.627 469.454 443.84 469.454H565.975C568.198 469.454 570.007 471.274 570.007 473.497V480.559C570.018 482.771 568.198 484.591 565.975 484.591Z" fill="#D8D8DB"/>
<path opacity="0.57" d="M387.952 409.899H265.817C263.594 409.899 261.784 408.079 261.784 405.856V398.795C261.784 396.572 263.604 394.752 265.817 394.752H387.952C390.175 394.752 391.985 396.572 391.985 398.795V405.856C391.995 408.079 390.175 409.899 387.952 409.899Z" fill="#D8D8DB"/>
<path opacity="0.57" d="M333.233 351.192H258.838C253.792 351.192 249.666 347.067 249.666 342.021C249.666 336.975 253.792 332.85 258.838 332.85H333.233C338.279 332.85 342.405 336.975 342.405 342.021C342.395 347.067 338.269 351.192 333.233 351.192Z" fill="#D8D8DB"/>
<path opacity="0.57" d="M387.952 447.245H265.817C263.594 447.245 261.784 445.426 261.784 443.203V436.141C261.784 433.918 263.604 432.098 265.817 432.098H387.952C390.175 432.098 391.985 433.918 391.985 436.141V443.203C391.995 445.426 390.175 447.245 387.952 447.245Z" fill="#D8D8DB"/>
<path opacity="0.57" d="M387.952 484.591H265.817C263.594 484.591 261.784 482.771 261.784 480.559V473.497C261.784 471.274 263.604 469.454 265.817 469.454H387.952C390.175 469.454 391.985 471.274 391.985 473.497V480.559C391.995 482.771 390.175 484.591 387.952 484.591Z" fill="#D8D8DB"/>
<path opacity="0.39" d="M417.856 309.039H413.12V538.615H417.856V309.039Z" fill="#D8D8DB"/>
<path opacity="0.27" d="M415.581 310.972V313.443C415.581 303.176 423.904 294.853 434.172 294.853H584.018C588.961 294.853 592.972 298.865 592.972 303.807V301.336C592.972 296.394 588.961 292.382 584.018 292.382H434.172C423.904 292.382 415.581 300.705 415.581 310.972Z" fill="#D8D8DB"/>
<path d="M416.687 366.236L416.17 383.979C416.118 377.475 416.304 371.582 416.687 366.236Z" fill="#D8D8DB"/>
<path opacity="0.2" d="M533.797 292.382C526.808 306.061 500.999 311.748 493.895 313.319C462.669 320.215 451.884 309.432 437.874 316.855C428.423 321.87 418.972 334.381 416.687 366.236L418.579 300.84C421.899 295.753 427.637 292.382 434.172 292.382H533.797Z" fill="url(#paint21_linear_135_2326)"/>
<path opacity="0.56" d="M298.657 292.382C305.647 306.061 331.455 311.748 338.558 313.319C369.785 320.215 380.57 309.432 394.58 316.855C404.031 321.87 413.482 334.381 415.767 366.236L413.874 300.84C410.555 295.753 404.817 292.382 398.282 292.382H298.657Z" fill="url(#paint22_linear_135_2326)"/>
<path opacity="0.19" d="M329.025 409.9L343.17 388.032L356.488 409.9V292.382H329.025V409.9Z" fill="#4562FF"/>
<path d="M345.093 409.9L356.829 388.032L367.882 409.9V292.382H345.093V409.9Z" fill="#4562FF"/>
<path opacity="0.47" d="M367.883 292.382V409.9L356.829 388.032V292.382H367.883Z" fill="#4562FF"/>
<path opacity="0.16" d="M516.685 575.619C516.685 575.619 516.468 468.689 599.218 438.922C599.218 438.922 615.349 471.191 588.972 479.37C565.51 486.638 563.577 490.609 566.079 495.871C567.413 498.684 574.216 497.236 578.476 495.344C580.017 494.662 581.558 496.306 580.731 497.774C578.57 501.62 575.044 507.782 557.497 514.441C551.375 516.767 546.361 521.327 542.597 526.683C536.941 534.737 528.431 549.326 516.685 575.619Z" fill="#4562FF"/>
<path d="M601.793 489.875C596.054 490.795 591.536 491.705 588.01 492.625C585.28 493.338 583.14 494.062 581.485 494.807C576.212 497.174 575.798 499.759 576.812 502.985C577.267 504.443 579.159 505.063 581.485 505.177C583.533 505.28 585.942 504.981 588.01 504.495C588.403 504.402 588.785 504.309 589.147 504.195C590.771 503.74 592.063 505.58 591.04 506.914C590.264 507.927 589.354 509.106 588.01 510.378C586.511 511.794 584.474 513.335 581.485 514.855C578.797 516.23 575.343 517.584 570.825 518.856C569.243 519.301 567.537 519.735 565.686 520.148C559.296 521.586 553.692 525.401 549.214 530.178C547.819 531.666 546.268 533.414 544.541 535.471C537.934 543.329 528.824 555.654 516.685 574.978C516.685 574.978 521.969 537.26 544.541 503.057C551.52 492.47 560.164 482.213 570.825 473.528C574.175 470.798 577.722 468.214 581.485 465.836C583.595 464.491 585.766 463.22 588.01 462.01C596.799 457.254 606.632 453.552 617.634 451.278C617.634 451.278 629.049 485.491 601.793 489.875Z" fill="#4562FF"/>
<g opacity="0.1">
<path d="M570.824 473.539V518.877C569.242 519.322 567.536 519.756 565.685 520.169C559.295 521.607 553.691 525.422 549.214 530.199C547.818 531.687 546.267 533.435 544.54 535.492V503.078C551.519 492.48 560.164 482.224 570.824 473.539Z" fill="url(#paint23_linear_135_2326)"/>
<path d="M588.009 462.01V492.625C585.279 493.339 583.139 494.062 581.484 494.807V465.836C583.594 464.502 585.765 463.22 588.009 462.01Z" fill="url(#paint24_linear_135_2326)"/>
<path d="M588.009 504.505V510.398C586.51 511.815 584.473 513.355 581.484 514.875V505.187C583.532 505.291 585.93 504.991 588.009 504.505Z" fill="url(#paint25_linear_135_2326)"/>
</g>
<g opacity="0.16">
<path d="M516.861 571.463C521.875 559.366 527.821 547.672 534.159 536.216C540.549 524.791 547.384 513.573 555.284 503.099C559.275 497.898 563.483 492.842 568.229 488.293C570.576 485.997 573.11 483.899 575.767 481.955C578.466 480.052 581.309 478.45 584.163 476.827C595.63 470.509 608.121 465.794 621.139 464.15C614.656 465.071 608.307 466.787 602.175 469.051C596.023 471.264 590.088 474.045 584.38 477.23C581.547 478.853 578.704 480.487 576.057 482.379C573.441 484.312 570.938 486.411 568.612 488.706C563.918 493.245 559.761 498.312 555.811 503.512C547.891 513.914 540.994 525.07 534.542 536.443C531.326 542.14 528.255 547.92 525.298 553.752C522.341 559.573 519.415 565.435 516.861 571.463Z" fill="#596A74"/>
</g>
<path d="M472.296 336.196H471.814C471.715 335.022 471.178 333.928 470.31 333.13C469.443 332.333 468.307 331.89 467.129 331.89H464.976V326.292C464.976 325.949 464.84 325.621 464.597 325.378C464.355 325.136 464.026 325 463.684 325C463.341 325 463.013 325.136 462.77 325.378C462.528 325.621 462.392 325.949 462.392 326.292V331.89H449.904C448.726 331.89 447.59 332.333 446.722 333.13C445.855 333.928 445.318 335.022 445.219 336.196H444.737C443.48 336.196 442.275 336.695 441.387 337.583C440.499 338.472 440 339.677 440 340.933V344.378C440 345.634 440.499 346.839 441.387 347.727C442.275 348.616 443.48 349.115 444.737 349.115H445.167V352.129C445.167 353.385 445.666 354.59 446.555 355.478C447.443 356.367 448.648 356.866 449.904 356.866H450.92V358.847C450.917 359.261 451.034 359.667 451.257 360.015C451.481 360.364 451.8 360.64 452.178 360.81C452.458 360.94 452.764 361.005 453.073 361C453.586 361.002 454.081 360.818 454.469 360.483L458.654 356.866H467.129C468.385 356.866 469.59 356.367 470.478 355.478C471.366 354.59 471.866 353.385 471.866 352.129V349.115H472.296C473.552 349.115 474.757 348.616 475.646 347.727C476.534 346.839 477.033 345.634 477.033 344.378V340.933C477.033 339.677 476.534 338.472 475.646 337.583C474.757 336.695 473.552 336.196 472.296 336.196ZM444.737 346.531C444.166 346.531 443.618 346.304 443.214 345.9C442.81 345.497 442.583 344.949 442.583 344.378V340.933C442.583 340.362 442.81 339.814 443.214 339.41C443.618 339.007 444.166 338.78 444.737 338.78H445.167V346.531H444.737ZM469.282 352.129C469.282 352.7 469.055 353.248 468.651 353.651C468.247 354.055 467.7 354.282 467.129 354.282H458.172C457.862 354.279 457.562 354.39 457.328 354.592L453.504 357.899V355.574C453.504 355.231 453.368 354.903 453.126 354.66C452.883 354.418 452.555 354.282 452.212 354.282H449.904C449.333 354.282 448.785 354.055 448.382 353.651C447.978 353.248 447.751 352.7 447.751 352.129V336.627C447.751 336.056 447.978 335.508 448.382 335.104C448.785 334.7 449.333 334.474 449.904 334.474H467.129C467.7 334.474 468.247 334.7 468.651 335.104C469.055 335.508 469.282 336.056 469.282 336.627V352.129ZM474.449 344.378C474.449 344.949 474.222 345.497 473.819 345.9C473.415 346.304 472.867 346.531 472.296 346.531H471.866V338.78H472.296C472.867 338.78 473.415 339.007 473.819 339.41C474.222 339.814 474.449 340.362 474.449 340.933V344.378ZM464.976 340.933C464.971 341.274 464.834 341.6 464.592 341.841C464.351 342.083 464.025 342.22 463.684 342.225H453.349C453.006 342.225 452.678 342.089 452.435 341.846C452.193 341.604 452.057 341.276 452.057 340.933C452.057 340.59 452.193 340.262 452.435 340.019C452.678 339.777 453.006 339.641 453.349 339.641H463.684C464.026 339.641 464.355 339.777 464.597 340.019C464.84 340.262 464.976 340.59 464.976 340.933ZM464.976 347.823C464.971 348.164 464.834 348.49 464.592 348.731C464.351 348.973 464.025 349.11 463.684 349.115H453.349C453.006 349.115 452.678 348.979 452.435 348.736C452.193 348.494 452.057 348.165 452.057 347.823C452.057 347.48 452.193 347.152 452.435 346.909C452.678 346.667 453.006 346.531 453.349 346.531H463.684C464.026 346.531 464.355 346.667 464.597 346.909C464.84 347.152 464.976 347.48 464.976 347.823Z" fill="url(#paint26_linear_135_2326)"/>
<path d="M485.707 354H481.469L489.243 333.642H494.313L502.113 354H497.771L496.237 349.892H487.215L485.707 354ZM491.739 337.724L488.671 345.992H494.807L491.739 337.724Z" fill="#04091E"/>
<path d="M507.459 354.26C506.159 354.26 505.041 353.896 504.131 353.142C503.221 352.388 502.779 351.374 502.779 350.126V350.074C502.779 348.436 503.585 347.24 504.833 346.642C506.107 346.044 507.407 345.81 508.967 345.81H510.345C511.073 345.81 511.437 345.472 511.437 344.796C511.437 343.834 510.657 343.08 509.201 343.08C507.823 343.08 506.809 343.704 506.107 344.952L503.013 343.106C504.209 340.896 506.341 339.804 509.383 339.804C513.049 339.804 515.415 341.754 515.415 345.394V354H511.671V352.284L511.619 352.258C510.683 353.584 509.305 354.26 507.459 354.26ZM508.629 351.296C510.371 351.296 511.411 350.152 511.411 348.618V348.306H508.967C507.797 348.306 506.861 348.852 506.861 349.892C506.861 350.828 507.589 351.296 508.629 351.296Z" fill="#04091E"/>
<path d="M520.624 332.758C522.054 332.758 523.172 333.85 523.172 335.28C523.172 336.658 522.054 337.776 520.624 337.776C519.272 337.776 518.128 336.658 518.128 335.28C518.128 333.902 519.272 332.758 520.624 332.758ZM522.704 354H518.622V340.116H522.704V354Z" fill="#04091E"/>
<path d="M501.687 356.6H524.576V357.9H501.687V356.6Z" fill="#04091E"/>
<defs>
<linearGradient id="paint0_linear_135_2326" x1="406.004" y1="0" x2="406.004" y2="1.47638" gradientUnits="userSpaceOnUse">
<stop stop-color="#AC6AFF"/>
<stop offset="1" stop-color="#1A1A32"/>
</linearGradient>
<linearGradient id="paint1_linear_135_2326" x1="406.004" y1="0" x2="406.004" y2="1.47638" gradientUnits="userSpaceOnUse">
<stop stop-color="#AC6AFF"/>
<stop offset="1" stop-color="#1A1A32"/>
</linearGradient>
<linearGradient id="paint2_linear_135_2326" x1="406.004" y1="0" x2="406.004" y2="1.47638" gradientUnits="userSpaceOnUse">
<stop stop-color="#AC6AFF"/>
<stop offset="1" stop-color="#1A1A32"/>
</linearGradient>
<linearGradient id="paint3_linear_135_2326" x1="406.004" y1="0" x2="406.004" y2="1.47638" gradientUnits="userSpaceOnUse">
<stop stop-color="#AC6AFF"/>
<stop offset="1" stop-color="#1A1A32"/>
</linearGradient>
<linearGradient id="paint4_linear_135_2326" x1="406.004" y1="0" x2="406.004" y2="1.47638" gradientUnits="userSpaceOnUse">
<stop stop-color="#AC6AFF"/>
<stop offset="1" stop-color="#1A1A32"/>
</linearGradient>
<linearGradient id="paint5_linear_135_2326" x1="406.004" y1="0" x2="406.004" y2="1.47638" gradientUnits="userSpaceOnUse">
<stop stop-color="#AC6AFF"/>
<stop offset="1" stop-color="#1A1A32"/>
</linearGradient>
<linearGradient id="paint6_linear_135_2326" x1="406.004" y1="0" x2="406.004" y2="1.47638" gradientUnits="userSpaceOnUse">
<stop stop-color="#AC6AFF"/>
<stop offset="1" stop-color="#1A1A32"/>
</linearGradient>
<linearGradient id="paint7_linear_135_2326" x1="406.004" y1="0" x2="406.004" y2="1.47638" gradientUnits="userSpaceOnUse">
<stop stop-color="#AC6AFF"/>
<stop offset="1" stop-color="#1A1A32"/>
</linearGradient>
<linearGradient id="paint8_linear_135_2326" x1="406.004" y1="0" x2="406.004" y2="1.47638" gradientUnits="userSpaceOnUse">
<stop stop-color="#AC6AFF"/>
<stop offset="1" stop-color="#1A1A32"/>
</linearGradient>
<linearGradient id="paint9_linear_135_2326" x1="406.004" y1="0" x2="406.004" y2="1.47638" gradientUnits="userSpaceOnUse">
<stop stop-color="#AC6AFF"/>
<stop offset="1" stop-color="#1A1A32"/>
</linearGradient>
<linearGradient id="paint10_linear_135_2326" x1="406.004" y1="0" x2="406.004" y2="1.47638" gradientUnits="userSpaceOnUse">
<stop stop-color="#AC6AFF"/>
<stop offset="1" stop-color="#1A1A32"/>
</linearGradient>
<linearGradient id="paint11_linear_135_2326" x1="406.004" y1="0" x2="406.004" y2="177.165" gradientUnits="userSpaceOnUse">
<stop stop-color="#0E0C15"/>
<stop offset="1" stop-color="#0E0C15" stop-opacity="0"/>
</linearGradient>
<linearGradient id="paint12_linear_135_2326" x1="1218.01" y1="812.008" x2="1218.01" y2="1079.23" gradientUnits="userSpaceOnUse">
<stop stop-color="#0E0C15"/>
<stop offset="1" stop-color="#0E0C15" stop-opacity="0"/>
</linearGradient>
<linearGradient id="paint13_linear_135_2326" x1="378.511" y1="177.648" x2="392.437" y2="177.648" gradientUnits="userSpaceOnUse">
<stop stop-color="#83A6FF"/>
<stop offset="1" stop-color="#5A78FF"/>
</linearGradient>
<linearGradient id="paint14_linear_135_2326" x1="504.518" y1="192.694" x2="515.087" y2="192.694" gradientUnits="userSpaceOnUse">
<stop stop-color="#FF66A9"/>
<stop offset="1" stop-color="#F53689"/>
</linearGradient>
<linearGradient id="paint15_linear_135_2326" x1="400.832" y1="318.141" x2="410.313" y2="318.141" gradientUnits="userSpaceOnUse">
<stop stop-color="#FF66A9"/>
<stop offset="1" stop-color="#F53689"/>
</linearGradient>
<linearGradient id="paint16_linear_135_2326" x1="182.419" y1="329.279" x2="194.471" y2="329.279" gradientUnits="userSpaceOnUse">
<stop stop-color="#FF66A9"/>
<stop offset="1" stop-color="#F53689"/>
</linearGradient>
<linearGradient id="paint17_linear_135_2326" x1="488.578" y1="324.683" x2="498.885" y2="324.683" gradientUnits="userSpaceOnUse">
<stop stop-color="#83A6FF"/>
<stop offset="1" stop-color="#5A78FF"/>
</linearGradient>
<linearGradient id="paint18_linear_135_2326" x1="640.919" y1="294.337" x2="652.205" y2="294.337" gradientUnits="userSpaceOnUse">
<stop stop-color="#FF66A9"/>
<stop offset="1" stop-color="#F53689"/>
</linearGradient>
<linearGradient id="paint19_linear_135_2326" x1="415.157" y1="431.657" x2="95.7698" y2="431.657" gradientUnits="userSpaceOnUse">
<stop stop-color="#DEE1E2"/>
<stop offset="1" stop-color="#EFEFEF"/>
</linearGradient>
<linearGradient id="paint20_linear_135_2326" x1="511.988" y1="538.15" x2="511.988" y2="240.217" gradientUnits="userSpaceOnUse">
<stop stop-color="#DEE1E2"/>
<stop offset="1" stop-color="#EFEFEF"/>
</linearGradient>
<linearGradient id="paint21_linear_135_2326" x1="416.688" y1="329.31" x2="533.795" y2="329.31" gradientUnits="userSpaceOnUse">
<stop stop-color="#DEE1E2"/>
<stop offset="1" stop-color="#EFEFEF"/>
</linearGradient>
<linearGradient id="paint22_linear_135_2326" x1="415.765" y1="329.31" x2="298.659" y2="329.31" gradientUnits="userSpaceOnUse">
<stop stop-color="#DEE1E2"/>
<stop offset="1" stop-color="#EFEFEF"/>
</linearGradient>
<linearGradient id="paint23_linear_135_2326" x1="545.605" y1="480.001" x2="566.667" y2="522.758" gradientUnits="userSpaceOnUse">
<stop stop-color="#FEFEFC"/>
<stop offset="1" stop-color="white" stop-opacity="0.1"/>
</linearGradient>
<linearGradient id="paint24_linear_135_2326" x1="577.731" y1="464.177" x2="598.792" y2="506.933" gradientUnits="userSpaceOnUse">
<stop stop-color="#FEFEFC"/>
<stop offset="1" stop-color="white" stop-opacity="0.1"/>
</linearGradient>
<linearGradient id="paint25_linear_135_2326" x1="565.333" y1="470.283" x2="586.395" y2="513.039" gradientUnits="userSpaceOnUse">
<stop stop-color="#FEFEFC"/>
<stop offset="1" stop-color="white" stop-opacity="0.1"/>
</linearGradient>
<linearGradient id="paint26_linear_135_2326" x1="440.648" y1="325" x2="473.788" y2="362.752" gradientUnits="userSpaceOnUse">
<stop stop-color="#80FCF0"/>
<stop offset="1" stop-color="#AC5DFA"/>
</linearGradient>
</defs>
</svg>
