<svg width="101" height="42" viewBox="0 0 101 42" fill="none" xmlns="http://www.w3.org/2000/svg">
<path d="M7.09801 16.4579C7.09801 15.3646 7.99577 14.9439 9.48295 14.9439C11.615 14.9439 14.3083 15.5889 16.4405 16.7385V10.1495C14.112 9.22432 11.8115 8.85981 9.48295 8.85981C3.7875 8.85981 0 11.8319 0 16.7946C0 24.5327 10.661 23.2992 10.661 26.6358C10.661 27.9253 9.53898 28.346 7.96776 28.346C5.63923 28.346 2.66526 27.3926 0.308523 26.1029V32.7759C2.91776 33.8974 5.555 34.3739 7.96776 34.3739C13.8033 34.3739 17.8153 31.4862 17.8153 26.4674C17.7872 18.1123 7.09801 19.5981 7.09801 16.4579ZM26.0635 3.25239L19.218 4.71023L19.19 27.1683C19.19 31.318 22.3042 34.3739 26.4565 34.3739C28.757 34.3739 30.4403 33.9534 31.366 33.4487V27.7571C30.4685 28.1216 26.0355 29.4113 26.0355 25.2617V15.3084H31.366V9.33649H26.0355L26.0635 3.25239ZM40.0915 11.4112L39.6425 9.33649H33.5825V33.8692H40.5965V17.2431C42.2515 15.0843 45.0572 15.4768 45.927 15.7851V9.33649C45.0292 8.99997 41.7467 8.38312 40.0915 11.4112ZM47.6383 9.33649H54.6803V33.8692H47.6383V9.33649ZM47.6383 7.20562L54.6803 5.69159V0L47.6383 1.48603V7.20562ZM69.3253 8.85981C66.5758 8.85981 64.8083 10.1495 63.8265 11.0469L63.4615 9.30849H57.2895V42L64.3033 40.5142L64.3315 32.5795C65.3415 33.3085 66.8283 34.3459 69.2972 34.3459C74.3192 34.3459 78.8922 30.3085 78.8922 21.4207C78.8642 13.2897 74.235 8.85981 69.3253 8.85981ZM67.642 28.1776C65.9867 28.1776 65.0045 27.589 64.3315 26.8599L64.3033 16.4579C65.0328 15.6449 66.0428 15.0843 67.642 15.0843C70.195 15.0843 71.9625 17.944 71.9625 21.6168C71.9625 25.3739 70.223 28.1776 67.642 28.1776ZM101 21.701C101 14.5234 97.521 8.85981 90.872 8.85981C84.1945 8.85981 80.1545 14.5236 80.1545 21.645C80.1545 30.0841 84.9242 34.3459 91.7695 34.3459C95.1083 34.3459 97.6333 33.5889 99.541 32.5235V26.9159C97.6335 27.8693 95.445 28.4582 92.6675 28.4582C89.946 28.4582 87.5333 27.5048 87.2247 24.1964H100.944C100.944 23.8317 101 22.3739 101 21.701ZM87.1405 19.0375C87.1405 15.8693 89.0765 14.5514 90.844 14.5514C92.5553 14.5514 94.379 15.8693 94.379 19.0375H87.1405Z" fill="#6772E5"/>
</svg>
