<svg width="136" height="34" viewBox="0 0 136 34" fill="none" xmlns="http://www.w3.org/2000/svg">
<path d="M50.5459 7.38184H43.0654C42.8177 7.38168 42.5782 7.46997 42.3899 7.63081C42.2016 7.79164 42.0769 8.01444 42.0383 8.25906L39.0128 27.441C38.9989 27.53 39.0045 27.621 39.0291 27.7077C39.0537 27.7943 39.0968 27.8746 39.1555 27.943C39.2141 28.0114 39.2869 28.0663 39.3687 28.1039C39.4506 28.1415 39.5397 28.1609 39.6297 28.1607H43.201C43.4488 28.1609 43.6885 28.0724 43.8768 27.9114C44.0652 27.7503 44.1897 27.5272 44.2281 27.2824L45.0441 22.1087C45.0824 21.8641 45.2068 21.6412 45.3949 21.4802C45.583 21.3191 45.8224 21.2306 46.07 21.2304H48.4381C53.3657 21.2304 56.2096 18.8459 56.9522 14.1207C57.2869 12.0535 56.9665 10.4292 55.9984 9.29161C54.9353 8.04249 53.0496 7.38184 50.5459 7.38184ZM51.4089 14.3876C50.9998 17.0718 48.9489 17.0718 46.9659 17.0718H45.8371L46.629 12.0589C46.6522 11.9123 46.7269 11.7787 46.8398 11.6822C46.9527 11.5858 47.0963 11.5328 47.2448 11.5328H47.7621C49.113 11.5328 50.3873 11.5328 51.0457 12.3028C51.4384 12.7622 51.5587 13.4448 51.4089 14.3876ZM72.9064 14.3012H69.3242C69.1757 14.3012 69.0321 14.3542 68.9192 14.4507C68.8063 14.5471 68.7316 14.6807 68.7084 14.8273L68.5498 15.8292L68.2993 15.4661C67.5238 14.3406 65.7945 13.9643 64.0685 13.9643C60.11 13.9643 56.7291 16.9624 56.0706 21.1681C55.7283 23.266 56.215 25.272 57.4051 26.671C58.4967 27.9573 60.0586 28.4933 61.917 28.4933C65.1065 28.4933 66.8752 26.4424 66.8752 26.4424L66.7155 27.4377C66.7013 27.5267 66.7065 27.6177 66.7308 27.7045C66.7552 27.7913 66.798 27.8718 66.8564 27.9404C66.9149 28.009 66.9875 28.0641 67.0693 28.102C67.1511 28.1398 67.2401 28.1595 67.3302 28.1596H70.5569C70.8047 28.1598 71.0444 28.0713 71.2327 27.9103C71.4211 27.7492 71.5456 27.5261 71.584 27.2813L73.52 15.0209C73.5343 14.9321 73.5291 14.8413 73.5048 14.7547C73.4805 14.6681 73.4377 14.5878 73.3794 14.5194C73.321 14.451 73.2485 14.396 73.1669 14.3584C73.0852 14.3207 72.9963 14.3012 72.9064 14.3012ZM67.9132 21.2731C67.5676 23.3196 65.9433 24.6934 63.8716 24.6934C62.8314 24.6934 62.0001 24.3598 61.4664 23.7276C60.937 23.0997 60.7357 22.2061 60.9041 21.2107C61.2268 19.1817 62.8784 17.7631 64.9184 17.7631C65.9356 17.7631 66.7625 18.1011 67.3072 18.7388C67.853 19.383 68.0696 20.2821 67.9132 21.2731ZM91.9844 14.3012H88.3847C88.215 14.3015 88.0478 14.3432 87.8978 14.4226C87.7478 14.5021 87.6195 14.617 87.5239 14.7573L82.5592 22.0705L80.4547 15.0428C80.3901 14.8285 80.2582 14.6406 80.0786 14.5071C79.8989 14.3735 79.681 14.3013 79.4572 14.3012H75.9198C75.8205 14.3009 75.7226 14.3244 75.6342 14.3696C75.5458 14.4148 75.4695 14.4805 75.4116 14.5612C75.3537 14.6419 75.3159 14.7352 75.3014 14.8335C75.2869 14.9317 75.296 15.032 75.3281 15.1259L79.2931 26.7618L75.5654 32.024C75.4992 32.1173 75.4599 32.2271 75.4518 32.3412C75.4438 32.4554 75.4673 32.5695 75.5199 32.6712C75.5724 32.7728 75.6519 32.8581 75.7496 32.9176C75.8474 32.9771 75.9596 33.0085 76.074 33.0085H79.6693C79.8372 33.0087 80.0026 32.9682 80.1514 32.8905C80.3002 32.8127 80.4279 32.7001 80.5236 32.5622L92.4963 15.2802C92.5612 15.1867 92.5993 15.0772 92.6064 14.9636C92.6135 14.85 92.5894 14.7366 92.5366 14.6358C92.4839 14.5349 92.4046 14.4504 92.3072 14.3914C92.2099 14.3325 92.0982 14.3013 91.9844 14.3012Z" fill="#253B80"/>
<path d="M103.902 7.38195H96.4209C96.1735 7.38206 95.9342 7.47047 95.7461 7.63128C95.558 7.79209 95.4335 8.01474 95.3949 8.25918L92.3695 27.4411C92.3554 27.53 92.3608 27.6208 92.3852 27.7074C92.4096 27.794 92.4525 27.8743 92.5109 27.9427C92.5694 28.0111 92.6419 28.066 92.7236 28.1037C92.8053 28.1413 92.8942 28.1609 92.9842 28.1609H96.8234C96.9966 28.1606 97.1641 28.0985 97.2956 27.9859C97.4271 27.8732 97.5141 27.7173 97.541 27.5461L98.3996 22.1089C98.4379 21.8642 98.5623 21.6413 98.7504 21.4803C98.9385 21.3193 99.178 21.2307 99.4256 21.2305H101.793C106.721 21.2305 109.564 18.8461 110.308 14.1208C110.644 12.0536 110.321 10.4293 109.353 9.29173C108.291 8.04261 106.406 7.38195 103.902 7.38195ZM104.766 14.3877C104.358 17.0719 102.307 17.0719 100.322 17.0719H99.1948L99.9878 12.059C100.011 11.9124 100.085 11.7787 100.198 11.6822C100.311 11.5857 100.454 11.5327 100.603 11.5329H101.12C102.47 11.5329 103.745 11.5329 104.403 12.303C104.796 12.7624 104.915 13.4449 104.766 14.3877ZM126.262 14.3013H122.682C122.533 14.3009 122.39 14.3538 122.277 14.4503C122.164 14.5469 122.09 14.6807 122.067 14.8274L121.909 15.8294L121.657 15.4662C120.882 14.3407 119.153 13.9644 117.427 13.9644C113.469 13.9644 110.089 16.9625 109.431 21.1682C109.089 23.2661 109.574 25.2721 110.764 26.6711C111.858 27.9574 113.417 28.4934 115.276 28.4934C118.465 28.4934 120.234 26.4425 120.234 26.4425L120.074 27.4378C120.06 27.527 120.065 27.6182 120.09 27.7052C120.114 27.7921 120.157 27.8727 120.216 27.9413C120.275 28.01 120.348 28.0651 120.43 28.1028C120.512 28.1405 120.601 28.1599 120.691 28.1598H123.917C124.164 28.1596 124.404 28.071 124.592 27.91C124.78 27.749 124.904 27.5261 124.943 27.2814L126.88 15.021C126.894 14.932 126.888 14.841 126.863 14.7543C126.838 14.6677 126.795 14.5874 126.737 14.519C126.678 14.4506 126.605 14.3958 126.523 14.3582C126.441 14.3206 126.352 14.3012 126.262 14.3013ZM121.269 21.2732C120.925 23.3197 119.299 24.6935 117.227 24.6935C116.189 24.6935 115.356 24.3599 114.822 23.7277C114.292 23.0998 114.093 22.2062 114.26 21.2109C114.585 19.1819 116.234 17.7632 118.274 17.7632C119.291 17.7632 120.118 18.1012 120.663 18.7389C121.211 19.3831 121.427 20.2822 121.269 21.2732ZM130.485 7.90807L127.415 27.4411C127.401 27.53 127.406 27.6208 127.431 27.7074C127.455 27.794 127.498 27.8743 127.556 27.9427C127.615 28.0111 127.687 28.066 127.769 28.1037C127.851 28.1413 127.94 28.1609 128.03 28.1609H131.116C131.629 28.1609 132.065 27.789 132.143 27.2825L135.171 8.10167C135.185 8.01276 135.18 7.92186 135.155 7.83522C135.131 7.74858 135.088 7.66826 135.029 7.59976C134.971 7.53127 134.899 7.47624 134.817 7.43846C134.735 7.40067 134.646 7.38102 134.556 7.38086H131.1C130.951 7.38138 130.808 7.43473 130.695 7.53133C130.583 7.62794 130.508 7.76149 130.485 7.90807Z" fill="#179BD7"/>
<path d="M7.94767 31.8887L8.51972 28.2551L7.24545 28.2256H1.16064L5.38927 1.41326C5.40186 1.33134 5.44347 1.25666 5.50651 1.20286C5.56956 1.14905 5.64984 1.11968 5.73272 1.12012H15.9926C19.3986 1.12012 21.7492 1.8289 22.9765 3.22787C23.5518 3.88415 23.9182 4.56996 24.0954 5.32469C24.2814 6.1166 24.2846 7.06273 24.1031 8.21669L24.09 8.30091V9.04032L24.6653 9.36627C25.1045 9.5888 25.4993 9.88981 25.8302 10.2544C26.3224 10.8156 26.6407 11.5287 26.7752 12.3742C26.9141 13.2438 26.8682 14.2785 26.6407 15.45C26.3782 16.7975 25.9538 17.9712 25.3806 18.9315C24.8749 19.7919 24.195 20.537 23.3845 21.1191C22.6232 21.6595 21.7186 22.0697 20.6959 22.3322C19.7049 22.5903 18.575 22.7205 17.3357 22.7205H16.5373C15.9663 22.7205 15.4118 22.9261 14.9764 23.2947C14.5417 23.6673 14.2533 24.182 14.1626 24.7473L14.1025 25.0743L13.0918 31.4785L13.0459 31.7137C13.0338 31.7881 13.0131 31.8252 12.9824 31.8504C12.9528 31.8747 12.9157 31.8882 12.8774 31.8887H7.94767Z" fill="#253B80"/>
<path d="M25.2101 8.38574C25.1795 8.58153 25.1445 8.7817 25.1051 8.98733C23.7521 15.9341 19.1231 18.3338 13.2111 18.3338H10.201C9.478 18.3338 8.86875 18.8589 8.75609 19.572L7.21493 29.3462L6.7785 32.1168C6.76112 32.2267 6.76775 32.3391 6.79796 32.4462C6.82816 32.5532 6.88121 32.6525 6.95346 32.7371C7.02571 32.8218 7.11543 32.8897 7.21646 32.9363C7.31749 32.9829 7.42743 33.0071 7.53869 33.0072H12.8775C13.5097 33.0072 14.0468 32.5478 14.1463 31.9243L14.1988 31.653L15.204 25.274L15.2686 24.924C15.367 24.2983 15.9052 23.8389 16.5374 23.8389H17.3358C22.5084 23.8389 26.5577 21.7388 27.7412 15.6617C28.2356 13.123 27.9796 11.0032 26.6714 9.51235C26.2568 9.05117 25.7616 8.6694 25.2101 8.38574Z" fill="#179BD7"/>
<path d="M23.7945 7.82197C23.3625 7.697 22.923 7.59946 22.4787 7.52993C21.6007 7.395 20.7134 7.33026 19.8251 7.33633H11.7835C11.4775 7.33609 11.1814 7.44535 10.9489 7.64435C10.7164 7.84335 10.5628 8.11897 10.5158 8.42138L8.80508 19.2565L8.75586 19.5727C8.80915 19.2277 8.98414 18.9133 9.24917 18.6862C9.51419 18.4591 9.85175 18.3343 10.2008 18.3345H13.2109C19.1229 18.3345 23.7518 15.9336 25.1049 8.98796C25.1453 8.78233 25.1793 8.58216 25.2099 8.38637C24.8528 8.19915 24.4807 8.04218 24.0975 7.91713C23.997 7.8838 23.896 7.85207 23.7945 7.82197Z" fill="#222D65"/>
<path d="M10.5157 8.42116C10.5623 8.11866 10.7158 7.84292 10.9485 7.64402C11.1811 7.44512 11.4773 7.33625 11.7834 7.3372H19.825C20.7777 7.3372 21.667 7.39955 22.4786 7.53081C23.0278 7.61712 23.5694 7.74622 24.0985 7.91692C24.4977 8.04927 24.8685 8.20568 25.2109 8.38616C25.6134 5.81901 25.2076 4.07112 23.8196 2.48839C22.2893 0.745971 19.5275 0 15.9934 0H5.7336C5.01169 0 4.39588 0.525024 4.28431 1.23927L0.0108392 28.3272C-0.00906589 28.453 -0.00149267 28.5816 0.0330379 28.7041C0.0675686 28.8267 0.128237 28.9403 0.21087 29.0372C0.293503 29.134 0.39614 29.2119 0.51172 29.2653C0.6273 29.3187 0.753081 29.3465 0.88041 29.3466H7.2146L8.80498 19.2563L10.5157 8.42116Z" fill="#253B80"/>
</svg>
