<svg width="190" height="40" viewBox="0 0 190 40" fill="none" xmlns="http://www.w3.org/2000/svg">
<path d="M12.6829 10.5546L11.1113 16.3695L20.1065 10.5215L14.2235 32.5876L20.1983 32.5926L28.8891 0" fill="#3395FF"/>
<path d="M2.48204 23.0826L0 32.4046H12.2831L17.3092 13.4411L2.48204 23.0826ZM45.1491 14.8755C44.8488 15.9994 44.2703 16.8249 43.4076 17.3521C42.5469 17.8783 41.3389 18.1424 39.7796 18.1424H34.8256L36.565 11.6106H41.5191C43.0764 11.6106 44.1462 11.8727 44.7267 12.4069C45.3072 12.9411 45.4473 13.7576 45.1491 14.8866M50.2783 14.7454C50.9088 12.3867 50.6486 10.5723 49.4956 9.30226C48.3447 8.04226 46.325 7.40723 43.4427 7.40723H32.3866L25.7311 32.4156H31.1025L33.7847 22.3357H37.3076C38.0983 22.3357 38.7208 22.4667 39.1752 22.7187C39.6305 22.9808 39.8977 23.4344 39.9798 24.0896L40.9386 32.4156H46.6933L45.7606 24.6541C45.5704 22.9203 44.7828 21.9022 43.3986 21.5998C45.1631 21.0858 46.6413 20.229 47.8323 19.0395C49.0149 17.8588 49.8599 16.3789 50.2783 14.7555M63.335 23.4646C62.8846 25.1581 62.194 26.4382 61.2603 27.3353C60.3255 28.2325 59.2086 28.676 57.9055 28.676C56.5784 28.676 55.6787 28.2425 55.2033 27.3656C54.7269 26.4886 54.7109 25.2185 55.1533 23.5553C55.5956 21.8922 56.3012 20.5918 57.272 19.6544C58.2428 18.717 59.3777 18.2482 60.6808 18.2482C61.9819 18.2482 62.8726 18.7018 63.323 19.602C63.7833 20.5062 63.7934 21.7994 63.343 23.4828L63.335 23.4646ZM65.6889 14.6144L65.0164 17.1445C64.7261 16.2373 64.1627 15.5115 63.33 14.9672C62.4953 14.433 61.4624 14.1608 60.2304 14.1608C58.7192 14.1608 57.268 14.5539 55.8769 15.3402C54.4857 16.1264 53.2647 17.2352 52.2239 18.6666C51.183 20.0979 50.4224 21.7208 49.932 23.5453C49.4516 25.3798 49.3515 26.9825 49.6417 28.3736C49.942 29.7747 50.5725 30.8432 51.5433 31.5891C52.5241 32.3451 53.7751 32.718 55.3064 32.718C56.5232 32.7243 57.7262 32.4592 58.8293 31.9419C59.9199 31.4465 60.8899 30.7171 61.6716 29.8049L60.971 32.4419H66.1653L70.9082 14.6235H65.7039L65.6889 14.6144ZM89.5735 14.6144H74.4681L73.4123 18.5859H82.2015L70.5819 28.6961L69.5891 32.4257H85.1819L86.2378 28.4542H76.82L88.6177 18.1928M102.869 23.4344C102.402 25.1883 101.708 26.5068 100.793 27.3656C99.877 28.2325 98.7681 28.6659 97.466 28.6659C94.7438 28.6659 93.849 26.9221 94.7778 23.4344C95.2382 21.7006 95.9347 20.3973 96.8655 19.5193C97.7963 18.6383 98.9242 18.1988 100.25 18.1988C101.551 18.1988 102.43 18.6353 102.882 19.5143C103.335 20.3912 103.331 21.6986 102.869 23.4324M105.91 15.2847C104.714 14.5348 103.188 14.1598 101.326 14.1598C99.4416 14.1598 97.6972 14.5328 96.0919 15.2787C94.4932 16.0199 93.0882 17.1264 91.9885 18.5103C90.8576 19.9114 90.0439 21.5545 89.5445 23.4293C89.0541 25.2972 88.994 26.9372 89.3744 28.3413C89.7547 29.7424 90.5553 30.821 91.7563 31.5669C92.9673 32.3189 94.5086 32.6928 96.4001 32.6928C98.2616 32.6928 99.9931 32.3159 101.584 31.5659C103.176 30.8119 104.537 29.7414 105.668 28.3302C106.799 26.9251 107.609 25.2861 108.11 23.4112C108.61 21.5363 108.67 19.8993 108.29 18.4922C107.91 17.0911 107.119 16.0125 105.928 15.2615M124.453 19.3742L125.784 14.5257C125.334 14.2939 124.743 14.1729 124.003 14.1729C122.812 14.1729 121.671 14.4693 120.57 15.07C119.623 15.5801 118.819 16.2998 118.138 17.2009L118.829 14.5902L117.32 14.5963H113.617L108.843 32.4076H114.111L116.588 23.0967C116.948 21.743 117.597 20.6775 118.532 19.9215C119.463 19.1625 120.624 18.7825 122.025 18.7825C122.886 18.7825 123.687 18.9811 124.447 19.3772M139.109 23.5201C138.659 25.1833 137.978 26.4533 137.047 27.3303C136.117 28.2113 134.996 28.6508 133.695 28.6508C132.394 28.6508 131.503 28.2073 131.033 27.3202C130.552 26.4281 130.542 25.1429 130.993 23.4535C131.443 21.7651 132.133 20.4699 133.084 19.5728C134.035 18.6686 135.156 18.217 136.457 18.217C137.738 18.217 138.599 18.6807 139.059 19.6181C139.52 20.5555 139.53 21.8559 139.087 23.5191M142.77 15.314C141.794 14.5277 140.548 14.1346 139.037 14.1346C137.713 14.1346 136.451 14.437 135.254 15.0478C134.058 15.6577 133.087 16.4893 132.342 17.5416L132.36 17.4207L133.243 14.5882H128.099L126.788 19.5173L126.748 19.6887L121.344 39.9938H126.618L129.34 29.7727C129.61 30.6819 130.161 31.3956 131.002 31.9116C131.842 32.4257 132.88 32.6808 134.114 32.6808C135.645 32.6808 137.107 32.3078 138.493 31.5619C139.884 30.8139 141.085 29.7374 142.106 28.3464C143.126 26.9553 143.884 25.3425 144.367 23.5181C144.858 21.6906 144.958 20.0606 144.678 18.6343C144.393 17.206 143.761 16.1002 142.786 15.318M160.266 23.4475C159.815 25.1308 159.125 26.4211 158.194 27.3081C157.263 28.2012 156.142 28.6457 154.841 28.6457C153.51 28.6457 152.609 28.2123 152.139 27.3353C151.658 26.4584 151.648 25.1883 152.089 23.5251C152.529 21.8619 153.232 20.5616 154.203 19.6242C155.173 18.6867 156.309 18.219 157.612 18.219C158.913 18.219 159.794 18.6726 160.255 19.5697C160.715 20.4699 160.718 21.7631 160.27 23.4505L160.266 23.4475ZM162.617 14.5922L161.944 17.1223C161.654 16.2101 161.093 15.4843 160.263 14.945C159.422 14.4068 158.391 14.1386 157.16 14.1386C155.649 14.1386 154.19 14.5318 152.796 15.318C151.405 16.1042 150.184 17.207 149.143 18.6343C148.103 20.0616 147.342 21.6885 146.852 23.513C146.366 25.3445 146.271 26.9503 146.561 28.3474C146.855 29.7384 147.486 30.8129 148.463 31.5629C149.438 32.3088 150.695 32.6858 152.226 32.6858C153.457 32.6858 154.633 32.4277 155.749 31.9096C156.837 31.4119 157.804 30.6817 158.584 29.7697L157.884 32.4086H163.078L167.82 14.5973H162.625L162.617 14.5922ZM189.627 14.5983L189.63 14.5932H186.437C186.335 14.5932 186.245 14.5983 186.152 14.6003H184.495L183.645 15.7897L183.435 16.072L183.344 16.2131L176.614 25.656L175.223 14.5983H169.71L172.503 31.4016L166.338 39.9998H171.832L173.323 37.8699C173.365 37.8074 173.403 37.755 173.453 37.6885L175.195 35.1987L175.245 35.1282L183.044 23.9898L189.62 14.6154L189.63 14.6094H189.627V14.5983Z" fill="#072654"/>
</svg>
