<svg width="193" height="38" viewBox="0 0 193 38" fill="none" xmlns="http://www.w3.org/2000/svg">
<path d="M64.0018 8.79102H64.0661C64.4517 8.79102 64.6766 9.08148 64.6766 9.46877V26.8644C64.6766 27.1548 64.4517 27.4776 64.0661 27.4776C63.7769 27.4776 63.4555 27.2517 63.4555 26.8644V9.40422C63.4555 9.08148 63.6804 8.79102 64.0018 8.79102ZM47.5165 9.69468H58.8602C59.2458 9.69468 59.4708 10.082 59.4708 10.3724C59.4708 10.6629 59.2458 10.9856 58.8602 10.9856H48.1271V18.2473H57.8319C58.1211 18.2473 58.4424 18.4732 58.4424 18.8605C58.4424 19.1509 58.2175 19.4737 57.8319 19.4737H48.2235V26.9612C48.1592 27.3485 47.8379 27.6389 47.4844 27.6389C47.0988 27.6389 46.8096 27.3485 46.8096 26.9612V10.4047H46.8738C46.8648 10.3147 46.8748 10.2238 46.903 10.1378C46.9312 10.0519 46.9772 9.97291 47.0378 9.90596C47.0984 9.83901 47.1723 9.7856 47.2548 9.7492C47.3373 9.71281 47.4264 9.69423 47.5165 9.69468ZM80.4549 15.0844C80.4549 14.6971 80.1657 14.4712 79.8444 14.4712C79.4587 14.4712 79.2338 14.7617 79.2338 15.0844V22.346C79.2338 24.8311 77.2093 26.7675 74.7349 26.703C72.0998 26.703 70.5895 24.9925 70.5895 22.2815V15.0844C70.5895 14.6971 70.3003 14.4712 69.9789 14.4712C69.6897 14.4712 69.3683 14.7617 69.3683 15.0844V22.5074C69.3683 25.5734 71.3286 27.8326 74.5421 27.8326C76.5023 27.8971 78.3661 26.8644 79.2659 25.1216V26.9935C79.2659 27.3808 79.5551 27.6067 79.8765 27.6067C80.2621 27.6067 80.4871 27.3162 80.4871 26.9935H80.4228V15.0844H80.4549ZM91.8628 15.1812C91.8628 15.4717 91.5736 15.6976 91.2523 15.6976H87.1069V24.0243C87.1069 25.8962 88.1673 26.5739 89.7419 26.5739C90.2561 26.5739 90.8024 26.5094 91.2523 26.348C91.5415 26.348 91.7664 26.5739 91.7664 26.8644C91.7664 27.0903 91.6058 27.3162 91.3808 27.3808C90.7703 27.6067 90.0954 27.6712 89.517 27.6712C87.5568 27.6712 85.9179 26.5416 85.9179 24.1534V15.6976H84.5039C84.2147 15.6976 83.8934 15.4072 83.8934 15.0844C83.8934 14.794 84.1826 14.568 84.5039 14.568H85.9179V10.9856C85.9179 10.6952 86.1428 10.3724 86.432 10.3724H86.4963C86.7855 10.3724 87.1069 10.6629 87.1069 10.9856V14.568H91.2523C91.5736 14.568 91.8628 14.8585 91.8628 15.1812ZM101.503 15.6976C101.793 15.6976 102.114 15.4717 102.114 15.1812C102.114 14.8908 101.825 14.568 101.503 14.568H97.3579V10.9856C97.3579 10.6952 97.0687 10.3724 96.7474 10.3724H96.6831C96.3939 10.3724 96.1689 10.6629 96.1689 10.9856V14.568H94.755C94.4658 14.568 94.1444 14.794 94.1444 15.0844C94.1444 15.3749 94.4336 15.6976 94.755 15.6976H96.1689V24.1534C96.1689 26.5416 97.8078 27.6712 99.7681 27.6712C100.379 27.6712 101.053 27.6067 101.632 27.3808C101.857 27.3162 102.018 27.0903 102.018 26.8644C102.018 26.5739 101.793 26.348 101.503 26.348C101.053 26.5094 100.539 26.5739 99.993 26.5739C98.4184 26.5739 97.3579 25.8962 97.3579 24.0243V15.6976H101.503ZM104.363 21.0228C104.363 17.2145 106.998 14.213 110.533 14.213C114.229 14.213 116.543 17.2145 116.543 21.0228C116.543 21.3133 116.253 21.636 115.932 21.636H105.713C105.938 24.8634 108.284 26.7353 110.822 26.7353C112.397 26.7353 113.972 26.0575 115.032 24.9279C115.096 24.8634 115.257 24.7666 115.418 24.7666C115.707 24.7666 116.028 25.057 116.028 25.3798C116.028 25.5411 115.964 25.6702 115.803 25.8316C114.518 27.2517 112.654 27.994 110.758 27.9294C107.288 27.9294 104.363 25.2184 104.363 21.1196V21.0228ZM121.427 18.3118C122.263 16.1495 124.287 14.568 126.601 14.4067C126.986 14.4067 127.276 14.6971 127.276 15.149C127.276 15.4394 127.051 15.8267 126.665 15.8267H126.601C123.805 16.1172 121.427 18.1504 121.427 22.346V27.1548C121.363 27.5421 121.138 27.768 120.752 27.768C120.463 27.768 120.142 27.4776 120.142 27.1548V15.149C120.206 14.7617 120.431 14.5358 120.816 14.5358C121.106 14.5358 121.427 14.8262 121.427 15.149V18.3118ZM147.103 13.7289C146.203 13.7289 145.464 14.3421 145.239 15.2135L143.054 22.1847L140.869 15.2135C140.644 14.3098 139.808 13.6321 138.844 13.6321H138.619C137.655 13.6321 136.82 14.2453 136.595 15.2135L134.41 22.1201L132.321 15.149C132.096 14.3098 131.357 13.6644 130.457 13.6644H130.393C129.429 13.6644 128.657 14.5035 128.657 15.4717C128.657 15.7622 128.722 16.0849 128.818 16.3754L132.192 26.0575C132.417 27.0257 133.253 27.7035 134.281 27.768H134.442C135.406 27.768 136.241 27.0903 136.53 26.1221L138.716 19.2155L140.901 26.1221C141.126 27.0903 142.026 27.768 142.99 27.768H143.15C144.211 27.768 145.111 27.0903 145.335 26.0575L148.71 16.3108C148.774 16.0849 148.87 15.7944 148.87 15.5685V15.504C148.838 14.5035 148.099 13.7289 147.103 13.7289ZM152.373 14.4067C153.787 13.9548 155.233 13.6644 156.743 13.7289C158.832 13.7289 160.343 14.3421 161.467 15.3103C162.528 16.5045 163.042 18.0859 162.978 19.6673V25.7993C162.978 26.8644 162.142 27.6712 161.114 27.6712C160.15 27.6712 159.314 26.9935 159.25 26.0252C158.189 27.1548 156.679 27.8326 155.105 27.7358C152.63 27.7358 150.445 26.2512 150.445 23.5402C150.445 20.5387 152.694 19.1186 155.94 19.1186C157.065 19.1186 158.189 19.28 159.25 19.635V19.4091C159.25 17.7631 158.286 16.924 156.326 16.924C155.426 16.924 154.526 16.9886 153.626 17.3113C153.466 17.3759 153.241 17.3759 153.112 17.3759C152.212 17.4404 151.473 16.7627 151.473 15.8913C151.409 15.2458 151.762 14.6326 152.373 14.4067ZM174.546 15.0199C174.771 14.1808 175.51 13.6644 176.346 13.6644C177.406 13.6644 178.21 14.5035 178.21 15.4717V15.5362C178.21 15.8267 178.145 16.1495 177.985 16.4399L173.936 26.1221C173.55 27.0903 172.65 27.7035 171.686 27.768H171.461C170.401 27.7035 169.597 27.0257 169.276 26.0575L165.066 16.3754C164.906 16.0849 164.841 15.7622 164.841 15.4717C164.906 14.4067 165.741 13.6644 166.705 13.6644C167.605 13.6644 168.344 14.2776 168.569 15.0844L171.493 22.9592L174.546 15.0199ZM179.752 21.3133C179.913 25.057 183.126 27.994 186.886 27.768C188.621 27.768 190.26 27.2517 191.61 26.1221C191.996 25.8316 192.124 25.4443 192.124 24.9925V24.9279C192.124 24.0888 191.449 23.4433 190.614 23.4433C190.324 23.4433 189.939 23.5079 189.714 23.7338C188.878 24.347 187.914 24.702 186.918 24.6375C185.279 24.702 183.833 23.5724 183.608 21.9265H191.353C192.317 21.8619 193.088 21.0228 192.992 20.0546V19.7641C192.992 16.3754 190.067 13.5353 186.468 13.6321C182.484 13.6321 179.688 16.8595 179.688 20.7646V21.3133H179.752Z" fill="#10112B"/>
<path d="M105.655 20.4267C105.88 17.6222 107.902 15.4551 110.47 15.4551C113.391 15.4551 114.964 17.8134 115.125 20.4267H105.655ZM159.266 22.6575C159.266 24.1235 157.982 25.0159 156.184 24.9521C154.996 24.9521 154.097 24.3466 154.097 23.3268V23.263C154.097 22.1476 155.157 21.4146 156.794 21.4146C157.629 21.4146 158.527 21.6377 159.266 21.9245V22.6575ZM186.457 16.7936C184.884 16.7936 183.824 17.909 183.535 19.6937H189.314C189.089 17.9728 188.03 16.7936 186.457 16.7936Z" fill="white"/>
<path d="M27.4923 0.297657C44.4032 -2.23729 33.5686 12.1381 28.3282 16.1812C31.929 18.9407 35.6262 22.8234 37.2016 27.2194C40.1272 35.2735 32.9256 36.4607 27.4923 34.4392C21.5446 32.3535 16.3041 27.8933 12.8319 22.6629C11.8674 22.6629 10.8065 22.5025 9.80984 22.2137C11.771 27.7328 12.6069 33.3803 12.0603 38.001C12.0603 28.6955 7.62364 19.4541 1.22581 11.753C-1.02469 9.05766 1.2901 7.06821 3.31555 9.66733C4.698 11.5605 5.95185 13.5179 7.07709 15.5394C9.29544 7.96668 20.0978 1.35656 27.4923 0.297657ZM25.0811 13.9992C28.3925 11.9777 38.4554 1.19612 29.0676 2.15876C23.6665 2.76843 17.1079 7.74205 14.4073 10.9508C18.1688 10.5016 21.9947 12.1381 25.0811 13.9992ZM15.7576 22.3741C18.7797 25.7434 22.8949 29.0163 27.3316 30.2036C29.9035 30.8774 32.7327 30.5887 31.7039 26.9306C30.643 23.5614 27.9424 20.6093 25.3061 18.3632C24.5667 18.8766 23.7308 19.4221 22.8949 19.775C20.6444 21.0265 18.2331 21.9249 15.7576 22.3741Z" fill="#EBA12A"/>
<path d="M14.3351 13.3533C16.8789 13.1332 19.6135 14.4538 21.7122 15.7744C19.7089 16.7178 17.4831 17.3152 15.1618 17.441C11.7595 17.4724 11.0599 13.6677 14.3351 13.3533Z" fill="white"/>
</svg>
