<svg width="111" height="33" viewBox="0 0 111 33" fill="none" xmlns="http://www.w3.org/2000/svg">
<path d="M46.6702 10.6465C40.6102 10.6465 35.6934 15.5766 35.6934 21.6234C35.6934 27.6701 40.6235 32.6002 46.6702 32.6002C52.717 32.6002 57.6471 27.6701 57.6471 21.6234C57.6471 15.5766 52.7302 10.6465 46.6702 10.6465ZM46.6702 27.4053C43.488 27.4053 40.8971 24.8145 40.8971 21.6322C40.8971 18.4499 43.488 15.8591 46.6702 15.8591C49.8525 15.8591 52.4433 18.4499 52.4433 21.6322C52.4433 24.8145 49.8525 27.4053 46.6702 27.4053Z" fill="black"/>
<path d="M83.1848 6.84565C85.0739 6.84565 86.6098 5.3141 86.6098 3.42062C86.6098 1.52714 85.0739 0 83.1848 0C81.2957 0 79.7598 1.53155 79.7598 3.42503C79.7598 5.31851 81.2957 6.84565 83.1848 6.84565Z" fill="black"/>
<path d="M24.2577 10.6544C23.9708 10.6324 23.6972 10.6191 23.4147 10.6191C20.7665 10.6191 18.2551 11.7049 16.4543 13.6205C14.6535 11.7137 12.1509 10.6191 9.52918 10.6191C4.27688 10.6236 0 14.8872 0 20.1395V32.1536H5.13313V20.2851C5.13313 18.1048 6.9251 16.0965 9.03485 15.8803C9.18491 15.867 9.33056 15.8582 9.46739 15.8582C11.842 15.8582 13.7796 17.7958 13.7928 20.1704V32.1492H19.0407V20.2631C19.0407 18.0959 20.8194 16.0877 22.9424 15.8714C23.0925 15.8582 23.2381 15.8494 23.375 15.8494C25.7495 15.8494 27.7004 17.7782 27.7092 20.1395V32.1536H32.9571V20.2851C32.9571 17.8797 32.0655 15.5581 30.4589 13.7705C28.8568 11.9697 26.6543 10.8619 24.2577 10.6544Z" fill="black"/>
<path d="M65.7245 0.511719H60.4766V32.1756H65.7245V0.511719ZM75.77 0.511719H70.5221V32.1756H75.77V0.511719ZM85.8112 11.1708H80.5633V32.1668H85.8112V11.1708Z" fill="black"/>
<path d="M110.343 21.133C110.343 18.348 109.257 15.7263 107.297 13.7269C105.324 11.7319 102.72 10.624 99.9483 10.624H99.8115C96.9382 10.6593 94.2193 11.7981 92.189 13.8416C90.1587 15.8852 89.0156 18.5863 88.9847 21.4729C88.9494 24.4168 90.0793 27.2019 92.167 29.3116C94.2546 31.4214 97.0176 32.5866 99.9616 32.5866H99.9748C103.832 32.5866 107.447 30.521 109.425 27.2019L109.676 26.7782L105.342 24.6464L105.126 24.9994C104.031 26.7914 102.151 27.8507 100.063 27.8507C97.3928 27.8507 95.0888 26.072 94.3782 23.5385H110.343V21.133ZM99.7409 15.3908C102.138 15.3908 104.283 16.9665 105.037 19.1998H94.4577C95.1992 16.9665 97.3442 15.3908 99.7409 15.3908Z" fill="black"/>
</svg>
