<svg width="170" height="31" viewBox="0 0 170 31" fill="none" xmlns="http://www.w3.org/2000/svg">
<path d="M24.7955 2.87793H2.10955C1.34771 2.87793 0.69873 3.52691 0.69873 4.31696V6.88465C0.69873 7.6747 1.34771 8.32368 2.10955 8.32368H24.7955C25.5855 8.32368 26.2063 7.6747 26.2345 6.88465V4.34518C26.2345 3.5269 25.5855 2.87793 24.7955 2.87793ZM24.7955 17.1272H2.10955C1.74273 17.1272 1.37592 17.2683 1.12198 17.5504C0.839812 17.8326 0.69873 18.1712 0.69873 18.5662V21.1339C0.69873 21.9239 1.34771 22.5729 2.10955 22.5729H24.7955C25.5855 22.5729 26.2063 21.9522 26.2345 21.1339V18.5662C26.2063 17.7479 25.5855 17.1272 24.7955 17.1272ZM14.8915 24.2377H2.10955C1.74273 24.2377 1.37592 24.3788 1.12198 24.6609C0.868028 24.9431 0.69873 25.2817 0.69873 25.6767V28.2444C0.69873 29.0345 1.34771 29.6834 2.10955 29.6834H14.8633C15.6534 29.6834 16.2741 29.0345 16.2741 28.2726V25.7049C16.3024 24.8584 15.6816 24.2095 14.8915 24.2377ZM26.2345 9.98844H2.10955C1.74273 9.98844 1.37592 10.1295 1.12198 10.4117C0.868028 10.6938 0.69873 11.0324 0.69873 11.4275V13.9952C0.69873 14.7852 1.34771 15.4342 2.10955 15.4342H26.2063C26.9963 15.4342 27.6171 14.7852 27.6171 13.9952V11.4275C27.6453 10.6374 26.9963 10.0167 26.2345 9.98844Z" fill="#00C3F7"/>
<path d="M52.6165 8.63419C51.9111 7.90057 51.0928 7.33624 50.1617 6.94122C49.2306 6.54619 48.243 6.34867 47.2272 6.34867C46.2396 6.32045 45.2803 6.54618 44.3774 6.96943C43.7848 7.25159 43.2487 7.64662 42.7972 8.1263V7.67484C42.7972 7.44911 42.7126 7.22338 42.5715 7.05408C42.4304 6.88478 42.2047 6.77192 41.9507 6.77192H38.8187C38.593 6.77192 38.3673 6.85656 38.2262 7.05408C38.0569 7.22338 37.9722 7.44911 38.0005 7.67484V28.7806C38.0005 29.0064 38.0851 29.2321 38.2262 29.4014C38.3955 29.5707 38.593 29.6553 38.8187 29.6553H42.0354C42.2611 29.6553 42.4586 29.5707 42.6279 29.4014C42.7972 29.2603 42.9101 29.0346 42.8819 28.7806V21.5573C43.3333 22.0652 43.9259 22.432 44.5749 22.6577C45.4214 22.9681 46.2961 23.1374 47.199 23.1374C48.2148 23.1374 49.2306 22.9399 50.1617 22.5448C51.0928 22.1498 51.9393 21.5855 52.6447 20.8519C53.3784 20.09 53.9427 19.1871 54.3377 18.1995C54.7892 17.0991 54.9867 15.914 54.9585 14.7289C54.9867 13.5438 54.761 12.3587 54.3377 11.2301C53.9145 10.299 53.3501 9.39603 52.6165 8.63419ZM49.7385 16.2808C49.5692 16.7323 49.3152 17.1273 48.9766 17.4941C48.3276 18.1995 47.3965 18.5945 46.4371 18.5945C45.9575 18.5945 45.4778 18.5099 45.0263 18.2842C44.6031 18.0867 44.2081 17.8327 43.8695 17.4941C43.5309 17.1555 43.2769 16.7323 43.1076 16.2808C42.7408 15.3215 42.7408 14.2775 43.1076 13.3181C43.2769 12.8666 43.5591 12.4716 43.8695 12.133C44.2081 11.7944 44.6031 11.5123 45.0263 11.3147C45.4778 11.1172 45.9575 11.0044 46.4371 11.0044C46.945 11.0044 47.3965 11.089 47.8762 11.3147C48.2994 11.5123 48.6944 11.7662 49.0048 12.1048C49.3434 12.4434 49.5692 12.8384 49.7667 13.2899C50.1053 14.2775 50.077 15.3215 49.7385 16.2808ZM72.1986 6.80013H69.0102C68.7845 6.80013 68.5587 6.88478 68.4177 7.05408C68.2484 7.22338 68.1637 7.44911 68.1637 7.70305V8.09808C67.7687 7.6184 67.2608 7.25159 66.7247 6.99765C65.85 6.5744 64.8906 6.37689 63.9313 6.37689C61.8715 6.37689 59.9245 7.19516 58.4573 8.63419C57.6955 9.39603 57.1029 10.299 56.7079 11.2865C56.2564 12.387 56.0307 13.572 56.0589 14.7853C56.0307 15.9704 56.2564 17.1555 56.7079 18.2842C57.1311 19.2717 57.6955 20.1747 58.4573 20.9365C59.8963 22.4038 61.8715 23.222 63.903 23.222C64.8624 23.2502 65.8217 23.0245 66.6965 22.6013C67.2326 22.3191 67.7687 21.9523 68.1637 21.5008V21.9241C68.1637 22.1498 68.2484 22.3755 68.4177 22.5448C68.587 22.6859 68.7845 22.7988 69.0102 22.7988H72.1986C72.4244 22.7988 72.6501 22.7141 72.7912 22.5448C72.9605 22.3755 73.0451 22.1498 73.0451 21.9241V7.73127C73.0451 7.50554 72.9605 7.27981 72.8194 7.11051C72.6501 6.913 72.4244 6.80013 72.1986 6.80013ZM67.8815 16.2808C67.7122 16.7323 67.4583 17.1273 67.1197 17.4941C66.7811 17.8327 66.4143 18.1149 65.991 18.3124C65.0881 18.7356 64.0441 18.7356 63.1412 18.3124C62.718 18.1149 62.3229 17.8327 61.9843 17.4941C61.6457 17.1555 61.3918 16.7323 61.2225 16.2808C60.8839 15.3215 60.8839 14.2775 61.2225 13.3181C61.3918 12.8666 61.6457 12.4998 61.9843 12.133C62.3229 11.7944 62.6897 11.5123 63.1412 11.3147C64.0441 10.8915 65.0881 10.8915 65.9628 11.3147C66.3861 11.5123 66.7811 11.7662 67.0915 12.1048C67.4019 12.4434 67.6558 12.8384 67.8533 13.2899C68.2484 14.2775 68.2484 15.3215 67.8815 16.2808ZM103.97 14.3621C103.519 13.9671 102.983 13.6285 102.418 13.4027C101.826 13.1488 101.177 12.9795 100.556 12.8384L98.1294 12.3587C97.5087 12.2459 97.0572 12.0766 96.8315 11.8791C96.634 11.738 96.4929 11.5123 96.4929 11.2583C96.4929 11.0044 96.634 10.7786 96.9443 10.5811C97.3676 10.3554 97.819 10.2425 98.2987 10.2707C98.9195 10.2707 99.5402 10.4118 100.105 10.6376C100.669 10.8915 101.205 11.1454 101.713 11.484C102.418 11.9355 103.039 11.8509 103.462 11.343L104.619 10.0168C104.845 9.79106 104.958 9.5089 104.986 9.19852C104.958 8.85992 104.788 8.57776 104.535 8.35203C104.055 7.92879 103.265 7.47732 102.221 7.02586C101.177 6.5744 99.8506 6.34867 98.2987 6.34867C97.3394 6.32045 96.4082 6.46153 95.5053 6.7437C94.7435 6.99764 94.0098 7.36446 93.3609 7.84414C92.7683 8.2956 92.3169 8.85992 91.9783 9.53712C91.6679 10.1861 91.4986 10.8915 91.4986 11.5969C91.4986 12.9231 91.8936 13.9953 92.6837 14.7853C93.4737 15.5754 94.5177 16.1115 95.8157 16.3655L98.3552 16.9298C98.8913 17.0144 99.4556 17.1837 99.9635 17.4377C100.246 17.5505 100.415 17.8327 100.415 18.1431C100.415 18.4252 100.274 18.6792 99.9635 18.9049C99.6531 19.1307 99.1452 19.2717 98.468 19.2717C97.7908 19.2717 97.0854 19.1307 96.4647 18.8203C95.8721 18.5381 95.336 18.1713 94.8281 17.7481C94.6024 17.5788 94.3767 17.4377 94.0945 17.3248C93.8123 17.2402 93.4455 17.3248 93.0787 17.6352L91.6961 18.6792C91.3011 18.9614 91.1036 19.441 91.2164 19.8925C91.3011 20.3722 91.6679 20.8236 92.3733 21.3598C94.1227 22.5448 96.2107 23.1656 98.3269 23.1092C99.3145 23.1092 100.302 22.9963 101.233 22.7141C102.051 22.4602 102.813 22.0934 103.491 21.5855C104.111 21.134 104.619 20.5415 104.958 19.8361C105.296 19.1589 105.466 18.4253 105.466 17.6634C105.494 16.9862 105.353 16.309 105.071 15.6883C104.788 15.2368 104.422 14.7571 103.97 14.3621ZM117.909 18.2277C117.768 17.9738 117.514 17.8045 117.204 17.7481C116.922 17.7481 116.611 17.8327 116.385 18.002C115.99 18.256 115.539 18.397 115.087 18.4252C114.946 18.4252 114.777 18.397 114.636 18.3688C114.467 18.3406 114.326 18.256 114.213 18.1431C114.072 18.002 113.959 17.8327 113.874 17.6634C113.761 17.3813 113.705 17.0991 113.733 16.8169V11.0326H117.853C118.107 11.0326 118.332 10.9197 118.502 10.7504C118.671 10.5811 118.784 10.3836 118.784 10.1297V7.67484C118.784 7.42089 118.699 7.19516 118.502 7.05408C118.332 6.88478 118.107 6.80013 117.881 6.80013H113.733V2.84985C113.733 2.62412 113.648 2.37017 113.479 2.22909C113.31 2.08801 113.112 2.00336 112.887 1.97514H109.67C109.444 1.97514 109.218 2.05979 109.049 2.22909C108.88 2.39839 108.767 2.62412 108.767 2.84985V6.80013H106.933C106.707 6.80013 106.481 6.88478 106.312 7.0823C106.171 7.25159 106.086 7.47732 106.086 7.70305V10.1579C106.086 10.3836 106.171 10.6093 106.312 10.7786C106.453 10.9761 106.679 11.0608 106.933 11.0608H108.767V17.9456C108.739 18.7639 108.908 19.5821 109.247 20.3157C109.557 20.9365 109.952 21.4726 110.488 21.9241C110.996 22.3473 111.589 22.6577 112.238 22.827C112.887 23.0245 113.564 23.1374 114.241 23.1374C115.116 23.1374 116.019 22.9963 116.865 22.7141C117.655 22.4602 118.361 22.0087 118.925 21.4162C119.292 21.0494 119.32 20.4568 119.038 20.0336L117.909 18.2277ZM135.347 6.80013H132.158C131.933 6.80013 131.735 6.88478 131.566 7.05408C131.396 7.22338 131.312 7.44911 131.312 7.70305V8.09808C130.917 7.6184 130.437 7.25159 129.873 6.99765C128.998 6.5744 128.039 6.37689 127.079 6.37689C125.02 6.37689 123.073 7.19516 121.605 8.63419C120.844 9.39603 120.251 10.299 119.856 11.2865C119.405 12.387 119.179 13.572 119.207 14.7571C119.179 15.9422 119.405 17.1273 119.856 18.256C120.251 19.2435 120.872 20.1465 121.605 20.9083C123.044 22.3755 124.991 23.1938 127.051 23.1938C128.011 23.222 128.97 22.9963 129.845 22.6013C130.409 22.3191 130.917 21.9523 131.312 21.5008V21.9241C131.312 22.1498 131.396 22.3755 131.566 22.5166C131.735 22.6859 131.933 22.7706 132.158 22.7706H135.347C135.826 22.7706 136.193 22.4038 136.193 21.9241V7.73127C136.193 7.50554 136.109 7.27981 135.968 7.11051C135.826 6.913 135.601 6.80013 135.347 6.80013ZM131.058 16.2808C130.889 16.7323 130.635 17.1273 130.296 17.4941C129.957 17.8327 129.591 18.1149 129.167 18.3124C128.716 18.5099 128.236 18.6228 127.728 18.6228C127.22 18.6228 126.769 18.5099 126.318 18.3124C125.894 18.1149 125.499 17.8327 125.161 17.4941C124.822 17.1555 124.568 16.7323 124.427 16.2808C124.088 15.3215 124.088 14.2775 124.427 13.3181C124.596 12.8666 124.85 12.4716 125.161 12.133C125.499 11.7944 125.894 11.5123 126.318 11.3147C126.769 11.1172 127.249 11.0044 127.728 11.0044C128.208 11.0044 128.688 11.089 129.167 11.3147C129.591 11.5123 129.957 11.7662 130.296 12.1048C130.635 12.4434 130.889 12.8384 131.058 13.2899C131.425 14.2492 131.425 15.3215 131.058 16.2808ZM152.841 18.002L151.007 16.5912C150.668 16.309 150.33 16.2244 150.047 16.3372C149.794 16.4501 149.568 16.6194 149.37 16.8169C148.975 17.2966 148.496 17.7198 147.988 18.0867C147.423 18.397 146.831 18.5663 146.21 18.5099C145.476 18.5099 144.799 18.3124 144.207 17.8891C143.614 17.4659 143.163 16.9016 142.937 16.1962C142.768 15.7165 142.683 15.2368 142.683 14.7571C142.683 14.2492 142.768 13.7696 142.937 13.2617C143.106 12.8102 143.332 12.4152 143.671 12.0766C144.009 11.738 144.376 11.4558 144.799 11.2865C145.251 11.089 145.73 10.9761 146.238 10.9761C146.859 10.9479 147.48 11.1172 148.016 11.4276C148.552 11.7662 149.003 12.1894 149.398 12.6973C149.568 12.8949 149.794 13.0642 150.047 13.177C150.33 13.2899 150.668 13.2052 151.007 12.9231L152.841 11.5405C153.067 11.3994 153.236 11.1737 153.321 10.9197C153.433 10.6376 153.405 10.3272 153.236 10.0732C152.53 8.97279 151.571 8.06987 150.414 7.42089C149.201 6.7437 147.762 6.37689 146.154 6.37689C145.025 6.37689 143.896 6.60262 142.824 7.02586C141.808 7.44911 140.905 8.04165 140.144 8.80349C139.382 9.56533 138.761 10.4683 138.338 11.484C137.463 13.6003 137.463 15.9704 138.338 18.0867C138.761 19.0742 139.353 20.0054 140.144 20.739C141.752 22.3191 143.896 23.1656 146.154 23.1656C147.762 23.1656 149.201 22.7988 150.414 22.1216C151.571 21.4726 152.559 20.5697 153.264 19.441C153.405 19.1871 153.433 18.8767 153.349 18.6228C153.236 18.397 153.067 18.1713 152.841 18.002ZM169.827 21.3033L164.776 13.9106L169.093 8.21095C169.291 7.957 169.376 7.59019 169.263 7.27981C169.178 7.05408 168.981 6.82835 168.444 6.82835H165.03C164.833 6.82835 164.635 6.88478 164.466 6.96943C164.24 7.08229 164.071 7.25159 163.958 7.44911L160.516 12.2741H159.697V0.874707C159.697 0.648977 159.613 0.423243 159.443 0.253945C159.274 0.0846472 159.077 0 158.851 0H155.662C155.437 0 155.211 0.0846472 155.042 0.253945C154.872 0.423243 154.788 0.620761 154.788 0.874707V21.8959C154.788 22.1498 154.872 22.3473 155.042 22.5166C155.211 22.6859 155.437 22.7706 155.662 22.7706H158.851C159.077 22.7706 159.302 22.6859 159.443 22.5166C159.613 22.3473 159.697 22.1216 159.697 21.8959V16.3372H160.6L164.353 22.0934C164.579 22.5166 165.002 22.7706 165.454 22.7706H169.037C169.573 22.7706 169.799 22.5166 169.912 22.2909C170.053 21.9523 170.025 21.5855 169.827 21.3033ZM90.3135 6.80013H86.73C86.4479 6.80013 86.1939 6.88478 85.9964 7.0823C85.8271 7.25159 85.7142 7.44911 85.6578 7.67484L83.0055 17.4941H82.3565L79.5349 7.67484C79.4784 7.47732 79.3938 7.27981 79.2527 7.0823C79.0834 6.88478 78.8577 6.77192 78.6037 6.77192H74.9638C74.4842 6.77192 74.202 6.913 74.0609 7.25159C73.9763 7.53375 73.9763 7.84414 74.0609 8.1263L78.5755 21.9523C78.6602 22.1498 78.7448 22.3755 78.9141 22.5166C79.0834 22.6859 79.3374 22.7706 79.5913 22.7706H81.51L81.3407 23.222L80.9175 24.4918C80.7764 24.8868 80.5507 25.2254 80.2121 25.4793C79.9017 25.7051 79.5349 25.8461 79.1399 25.8179C78.8013 25.8179 78.4909 25.7333 78.1805 25.6204C77.8701 25.4793 77.588 25.31 77.334 25.1125C77.1083 24.9432 76.8261 24.8586 76.5157 24.8586H76.4875C76.1489 24.8868 75.8385 25.0561 75.6692 25.3665L74.5406 27.0312C74.0891 27.7649 74.3431 28.2163 74.6252 28.4703C75.246 29.0346 75.9514 29.4578 76.7415 29.7118C77.6162 30.0222 78.5191 30.1632 79.422 30.1632C81.0586 30.1632 82.4129 29.7118 83.4569 28.8371C84.5292 27.8777 85.3474 26.6362 85.7425 25.2254L90.9907 8.1263C91.1036 7.81592 91.1318 7.50554 91.0189 7.22338C90.9907 7.02586 90.7932 6.80013 90.3135 6.80013Z" fill="#011B33"/>
</svg>
