<svg width="228" height="32" viewBox="0 0 228 32" fill="none" xmlns="http://www.w3.org/2000/svg">
<path d="M4.75069 24.8814V20.5834H10.5533C11.594 20.5834 12.3744 20.3148 12.8947 19.7775C13.4151 19.2403 13.6752 18.4792 13.6752 17.4942C13.6752 16.5093 13.4151 15.7594 12.8947 15.2445C12.3744 14.7072 11.594 14.4386 10.5533 14.4386H4.75069V11.1144H10.2819C12.0012 11.1144 13.5282 11.327 14.8629 11.7524C16.1976 12.1553 17.2495 12.8157 18.0187 13.7335C18.7879 14.6513 19.1724 15.8937 19.1724 17.4607V17.9307C19.1724 19.3858 18.8331 20.6394 18.1544 21.6915C17.4758 22.7212 16.4804 23.5159 15.1683 24.0756C13.8562 24.6128 12.2274 24.8814 10.2819 24.8814H4.75069ZM0 24.8814V0H5.42937V24.8814H0ZM4.75069 13.5656V10.2749H9.63712C10.7004 10.2749 11.4695 10.0063 11.9446 9.46905C12.4197 8.9318 12.6572 8.21546 12.6572 7.32004C12.6572 6.37985 12.4197 5.64113 11.9446 5.10388C11.4695 4.56663 10.7004 4.29801 9.63712 4.29801H4.75069V0H9.29779C12.1482 0 14.3313 0.593215 15.847 1.77964C17.3853 2.96607 18.1544 4.65617 18.1544 6.84995V7.35362C18.1544 8.87583 17.7585 10.0958 16.9668 11.0136C16.1976 11.9314 15.1457 12.5918 13.8109 12.9948C12.4988 13.3753 10.9945 13.5656 9.29779 13.5656H4.75069Z" fill="#04091E"/>
<path d="M33.0077 24.7135V19.2739H32.0915V13.3641C32.0915 12.4239 31.8653 11.7188 31.4128 11.2487C30.9604 10.7786 30.2365 10.5435 29.2411 10.5435C28.7434 10.5435 28.0873 10.5547 27.2729 10.5771C26.4585 10.5995 25.6215 10.6331 24.7618 10.6779C23.9022 10.7226 23.1217 10.7674 22.4204 10.8122V6.27912C22.9407 6.23435 23.5515 6.18958 24.2528 6.14481C24.9541 6.10004 25.678 6.06646 26.4246 6.04407C27.1711 6.02169 27.8724 6.01049 28.5285 6.01049C30.4287 6.01049 32.0236 6.27912 33.3131 6.81637C34.6252 7.35362 35.6206 8.17069 36.2992 9.26758C36.9779 10.3421 37.3172 11.73 37.3172 13.4313V24.7135H33.0077ZM27.0693 25.1836C25.7346 25.1836 24.5582 24.9486 23.5402 24.4785C22.5449 24.0084 21.7644 23.3368 21.1988 22.4638C20.6333 21.5684 20.3505 20.5051 20.3505 19.2739C20.3505 17.9307 20.7011 16.8339 21.4024 15.9832C22.1037 15.1102 23.0878 14.4722 24.3546 14.0693C25.6215 13.6439 27.0806 13.4313 28.7321 13.4313H32.7023V16.4197H28.6981C27.748 16.4197 27.0128 16.6548 26.4925 17.1249C25.9948 17.5726 25.7459 18.1882 25.7459 18.9717C25.7459 19.7104 25.9948 20.3148 26.4925 20.7849C27.0128 21.2326 27.748 21.4565 28.6981 21.4565C29.3089 21.4565 29.8519 21.3557 30.3269 21.1542C30.8246 20.9304 31.2318 20.561 31.5486 20.0462C31.8653 19.5313 32.0462 18.815 32.0915 17.8972L33.381 19.2403C33.2678 20.5163 32.9511 21.5908 32.4308 22.4638C31.9331 23.3368 31.2318 24.0084 30.3269 24.4785C29.4447 24.9486 28.3588 25.1836 27.0693 25.1836Z" fill="#04091E"/>
<path d="M40.5098 24.7135V6.3127H44.8194V14.2036H44.514C44.514 12.3232 44.7515 10.7562 45.2266 9.50263C45.7243 8.24904 46.4708 7.30885 47.4662 6.68206C48.4616 6.05527 49.6719 5.74187 51.0971 5.74187H51.3346C53.5064 5.74187 55.1578 6.44701 56.2889 7.85729C57.4427 9.24519 58.0195 11.3606 58.0195 14.2036V24.7135H52.5902V13.9014C52.5902 12.9164 52.2961 12.1105 51.7079 11.4837C51.1197 10.8569 50.3279 10.5435 49.3326 10.5435C48.3145 10.5435 47.4888 10.8681 46.8554 11.5173C46.2446 12.1441 45.9392 12.9724 45.9392 14.0021V24.7135H40.5098Z" fill="#04091E"/>
<path d="M74.3306 24.7135L68.4601 16.1175H65.8472L73.4144 6.3127H79.1152L71.9892 15.446L72.0571 12.8269L80.4386 24.7135H74.3306ZM61.2323 24.7135V0.20147H66.6616V24.7135H61.2323Z" fill="#04091E"/>
<path d="M92.3934 17.6957V12.9276H96.8387C97.6983 12.9276 98.4336 12.7597 99.0444 12.4239C99.6778 12.0881 100.164 11.618 100.504 11.0136C100.843 10.3868 101.013 9.67052 101.013 8.86464C101.013 8.01399 100.843 7.28646 100.504 6.68206C100.164 6.05527 99.6778 5.58517 99.0444 5.27177C98.4336 4.93599 97.6983 4.7681 96.8387 4.7681H92.3934V0H96.5672C98.6711 0 100.47 0.346975 101.963 1.04092C103.478 1.73487 104.632 2.71983 105.424 3.9958C106.238 5.27177 106.645 6.80518 106.645 8.59601V9.13326C106.645 10.8793 106.238 12.4015 105.424 13.6999C104.632 14.9759 103.478 15.9608 101.963 16.6548C100.47 17.3487 98.6711 17.6957 96.5672 17.6957H92.3934ZM87.507 24.7135V0H93.0721V24.7135H87.507Z" fill="#04091E"/>
<path d="M119.388 24.7135V19.2739H118.472V13.3641C118.472 12.4239 118.246 11.7188 117.793 11.2487C117.341 10.7786 116.617 10.5435 115.621 10.5435C115.124 10.5435 114.468 10.5547 113.653 10.5771C112.839 10.5995 112.002 10.6331 111.142 10.6779C110.282 10.7226 109.502 10.7674 108.801 10.8122V6.27912C109.321 6.23435 109.932 6.18958 110.633 6.14481C111.334 6.10004 112.058 6.06646 112.805 6.04407C113.551 6.02169 114.253 6.01049 114.909 6.01049C116.809 6.01049 118.404 6.27912 119.693 6.81637C121.005 7.35362 122.001 8.17069 122.68 9.26758C123.358 10.3421 123.698 11.73 123.698 13.4313V24.7135H119.388ZM113.45 25.1836C112.115 25.1836 110.939 24.9486 109.921 24.4785C108.925 24.0084 108.145 23.3368 107.579 22.4638C107.014 21.5684 106.731 20.5051 106.731 19.2739C106.731 17.9307 107.081 16.8339 107.783 15.9832C108.484 15.1102 109.468 14.4722 110.735 14.0693C112.002 13.6439 113.461 13.4313 115.112 13.4313H119.083V16.4197H115.078C114.128 16.4197 113.393 16.6548 112.873 17.1249C112.375 17.5726 112.126 18.1882 112.126 18.9717C112.126 19.7104 112.375 20.3148 112.873 20.7849C113.393 21.2326 114.128 21.4565 115.078 21.4565C115.689 21.4565 116.232 21.3557 116.707 21.1542C117.205 20.9304 117.612 20.561 117.929 20.0462C118.246 19.5313 118.427 18.815 118.472 17.8972L119.761 19.2403C119.648 20.5163 119.331 21.5908 118.811 22.4638C118.313 23.3368 117.612 24.0084 116.707 24.4785C115.825 24.9486 114.739 25.1836 113.45 25.1836Z" fill="#04091E"/>
<path d="M126.355 32V27.4334H130.224C130.812 27.4334 131.309 27.355 131.717 27.1983C132.124 27.064 132.452 26.829 132.701 26.4932C132.95 26.1574 133.153 25.6985 133.311 25.1165L137.893 6.3127H143.05L137.859 26.191C137.497 27.6236 136.988 28.7653 136.332 29.6159C135.698 30.4666 134.839 31.071 133.753 31.4292C132.689 31.8097 131.332 32 129.681 32H126.355ZM132.192 24.3106V20.1133H136.128V24.3106H132.192ZM129.952 24.3106L124.251 6.3127H129.715L135.11 24.3106H129.952Z" fill="#04091E"/>
<path d="M144.498 24.7135V6.3127H148.807V14.2371H148.502C148.502 12.3568 148.739 10.7898 149.214 9.5362C149.689 8.28262 150.402 7.34243 151.352 6.71564C152.302 6.06646 153.467 5.74187 154.847 5.74187H155.085C156.487 5.74187 157.652 6.06646 158.58 6.71564C159.53 7.34243 160.243 8.28262 160.718 9.5362C161.215 10.7898 161.464 12.3568 161.464 14.2371H160.141C160.141 12.3568 160.378 10.7898 160.854 9.5362C161.351 8.28262 162.075 7.34243 163.025 6.71564C163.975 6.06646 165.14 5.74187 166.52 5.74187H166.758C168.161 5.74187 169.337 6.06646 170.287 6.71564C171.26 7.34243 171.995 8.28262 172.493 9.5362C172.99 10.7898 173.239 12.3568 173.239 14.2371V24.7135H167.81V13.9349C167.81 12.9276 167.538 12.1105 166.995 11.4837C166.475 10.8569 165.729 10.5435 164.756 10.5435C163.783 10.5435 163.014 10.8681 162.448 11.5173C161.883 12.1441 161.6 12.9836 161.6 14.0357V24.7135H156.137V13.9349C156.137 12.9276 155.865 12.1105 155.322 11.4837C154.802 10.8569 154.067 10.5435 153.117 10.5435C152.121 10.5435 151.341 10.8681 150.775 11.5173C150.21 12.1441 149.927 12.9836 149.927 14.0357V24.7135H144.498Z" fill="#04091E"/>
<path d="M184.971 25.3515C183.388 25.3515 181.985 25.0829 180.763 24.5456C179.564 24.0084 178.558 23.2921 177.743 22.3966C176.952 21.4788 176.341 20.4603 175.911 19.341C175.504 18.1994 175.3 17.0353 175.3 15.8489V15.1773C175.3 13.9461 175.504 12.7709 175.911 11.6516C176.341 10.51 176.952 9.49143 177.743 8.59601C178.535 7.7006 179.519 6.99545 180.696 6.48059C181.894 5.94334 183.252 5.67471 184.768 5.67471C186.758 5.67471 188.432 6.12242 189.79 7.01784C191.17 7.89087 192.222 9.04372 192.946 10.4764C193.669 11.8867 194.031 13.4313 194.031 15.1102V16.9234H177.574V13.8678H190.74L188.975 15.2781C188.975 14.1812 188.817 13.241 188.5 12.4575C188.184 11.674 187.708 11.0808 187.075 10.6779C186.464 10.2525 185.695 10.0399 184.768 10.0399C183.817 10.0399 183.014 10.2525 182.358 10.6779C181.702 11.1032 181.204 11.73 180.865 12.5582C180.526 13.3641 180.356 14.3603 180.356 15.5467C180.356 16.6436 180.515 17.6062 180.831 18.4344C181.148 19.2403 181.646 19.8671 182.324 20.3148C183.003 20.7625 183.885 20.9864 184.971 20.9864C185.967 20.9864 186.781 20.7961 187.414 20.4155C188.048 20.035 188.478 19.5649 188.704 19.0052H193.692C193.421 20.2364 192.889 21.3333 192.097 22.2959C191.305 23.2585 190.31 24.0084 189.111 24.5456C187.912 25.0829 186.532 25.3515 184.971 25.3515Z" fill="#04091E"/>
<path d="M196.215 24.7135V6.3127H200.525V14.2036H200.219C200.219 12.3232 200.457 10.7562 200.932 9.50263C201.43 8.24904 202.176 7.30885 203.172 6.68206C204.167 6.05527 205.377 5.74187 206.803 5.74187H207.04C209.212 5.74187 210.863 6.44701 211.994 7.85729C213.148 9.24519 213.725 11.3606 213.725 14.2036V24.7135H208.296V13.9014C208.296 12.9164 208.001 12.1105 207.413 11.4837C206.825 10.8569 206.033 10.5435 205.038 10.5435C204.02 10.5435 203.194 10.8681 202.561 11.5173C201.95 12.1441 201.645 12.9724 201.645 14.0021V24.7135H196.215Z" fill="#04091E"/>
<path d="M225.387 24.9486C223.509 24.9486 221.994 24.7247 220.84 24.277C219.686 23.8069 218.838 23.0346 218.295 21.9601C217.775 20.8632 217.515 19.3858 217.515 17.5278V1.34313H222.571V17.7293C222.571 18.6023 222.797 19.2739 223.249 19.744C223.724 20.1917 224.392 20.4155 225.251 20.4155H228V24.9486H225.387ZM214.698 10.2413V6.3127H228V10.2413H214.698Z" fill="#04091E"/>
</svg>
